<svg width="1920" height="210" viewBox="0 0 1920 210" fill="none" xmlns="http://www.w3.org/2000/svg">
<path d="M0 41.5C0 41.5 193.049 92.8267 330.5 99C577.754 110.105 747.842 0 968 0C1188.16 0 1325.74 89.2597 1538 99C1697.75 106.331 1920 29.5 1920 29.5V169C1920 169 1689.7 145.283 1542.5 169.5C1296.81 209.921 1132.59 158.906 968 159C794.622 159.099 620.84 207.992 351 159C224.008 135.943 0 169 0 169V41.5Z" fill="#237F61"/>
<path d="M0 47.5C0 47.5 193.049 98.8267 330.5 105C577.754 116.105 747.842 6 968 6C1188.16 6 1325.74 95.2597 1538 105C1697.75 112.331 1920 35.5 1920 35.5V175C1920 175 1689.7 151.283 1542.5 175.5C1296.81 215.921 1132.59 164.906 968 165C794.622 165.099 620.84 213.992 351 165C224.008 141.943 0 175 0 175V47.5Z" fill="#A58E4F"/>
<path d="M0 65.5C0 65.5 193.049 116.827 330.5 123C577.754 134.105 747.842 24 968 24C1188.16 24 1325.74 113.26 1538 123C1697.75 130.331 1920 53.5 1920 53.5V193C1920 193 1689.7 169.283 1542.5 193.5C1296.81 233.921 1132.59 182.906 968 183C794.622 183.099 620.84 231.992 351 183C224.008 159.943 0 193 0 193V65.5Z" fill="#D7B979"/>
<path d="M925.021 44.0548C927.384 49.6514 912.547 57.4635 897.538 63.8014C882.529 70.1393 873.031 72.6031 870.668 67.0064C868.305 61.4098 869.416 54.5094 884.425 48.1714C899.434 41.8335 922.658 38.4582 925.021 44.0548Z" fill="#A58E4F"/>
<path d="M560.113 139.947C560.015 146.021 543.287 147.178 526.997 146.916C510.706 146.654 501.023 145.073 501.121 138.998C501.218 132.924 505.021 127.06 521.311 127.322C537.601 127.584 560.211 133.873 560.113 139.947Z" fill="#A58E4F"/>
<path d="M750.113 143.947C750.015 150.021 733.287 151.177 716.996 150.916C700.706 150.654 691.023 149.073 691.12 142.998C691.218 136.924 707.21 134.238 723.5 134.5C739.79 134.762 750.21 137.873 750.113 143.947Z" fill="#A58E4F"/>
<path d="M509.864 162.873C509.699 173.135 481.439 175.088 453.918 174.645C426.398 174.203 410.039 171.532 410.204 161.27C410.369 151.008 447.48 151.058 475 151.5C502.521 151.943 510.03 152.611 509.864 162.873Z" fill="#A58E4F"/>
<path d="M1528.11 177.494C1529.63 183.377 1513.8 188.926 1498.03 192.992C1482.25 197.057 1472.49 198.1 1470.98 192.217C1469.46 186.334 1448.02 172.013 1463.79 167.948C1479.57 163.882 1526.59 171.611 1528.11 177.494Z" fill="#A58E4F"/>
<path d="M67.6407 112.054C66.0758 121.6 39.4556 119.535 13.8547 115.338C-11.7461 111.142 -26.633 106.402 -25.0681 96.856C-23.5032 87.3099 -16.1512 78.955 9.44967 83.1517C35.0505 87.3485 69.2056 102.508 67.6407 112.054Z" fill="#A58E4F"/>
<path d="M167.232 136.809H170.656" stroke="#237F61" stroke-width="2" stroke-linecap="round"/>
<path d="M184.351 136.809H187.09" stroke="#237F61" stroke-width="2" stroke-linecap="round"/>
<path d="M179.558 145.026H182.297" stroke="#237F61" stroke-width="2" stroke-linecap="round"/>
<path d="M174.08 127.222C174.306 126.996 174.532 126.77 175.213 126.654C175.894 126.538 177.024 126.538 178.188 126.538" stroke="#237F61" stroke-width="2" stroke-linecap="round"/>
<path d="M167.917 145.711L169.971 145.026" stroke="#237F61" stroke-width="2" stroke-linecap="round"/>
<path d="M159.699 132.7H163.123" stroke="#237F61" stroke-width="2" stroke-linecap="round"/>
<path d="M158.33 145.026L159.015 145.711" stroke="#237F61" stroke-width="2" stroke-linecap="round"/>
<path d="M196.677 155.298H199.416" stroke="#237F61" stroke-width="2" stroke-linecap="round"/>
<path d="M182.297 152.559L185.036 151.874" stroke="#237F61" stroke-width="2" stroke-linecap="round"/>
<path d="M189.145 145.026H193.253" stroke="#237F61" stroke-width="2" stroke-linecap="round"/>
<path d="M823.311 68.9445C823.311 68.574 823.311 68.2035 824.608 68.0126C825.905 67.8218 828.498 67.8218 831.17 67.8218" stroke="#237F61" stroke-width="2" stroke-linecap="round"/>
<path d="M843.358 71.6514H844.336" stroke="#237F61" stroke-width="2" stroke-linecap="round"/>
<path d="M819.549 83.3926H820.527" stroke="#237F61" stroke-width="2" stroke-linecap="round"/>
<path d="M836.182 91.8726C836.29 91.8726 836.398 91.8726 837.099 91.8726C837.8 91.8726 839.092 91.8726 840.748 92.1987" stroke="#237F61" stroke-width="2" stroke-linecap="round"/>
<path d="M832.269 83.0664L833.573 82.4141" stroke="#237F61" stroke-width="2" stroke-linecap="round"/>
<path d="M815.635 94.1558H817.592" stroke="#237F61" stroke-width="2" stroke-linecap="round"/>
<path d="M810.743 74.2607H813.678" stroke="#237F61" stroke-width="2" stroke-linecap="round"/>
<path d="M835.856 59.584H838.465" stroke="#237F61" stroke-width="2" stroke-linecap="round"/>
<path d="M848.25 86.6543L851.838 86.9804" stroke="#237F61" stroke-width="2" stroke-linecap="round"/>
<path d="M1172.69 158.15L1176.03 157.732" stroke="#237F61" stroke-width="2" stroke-linecap="round"/>
<path d="M1159.74 169.008H1163.5" stroke="#237F61" stroke-width="2" stroke-linecap="round"/>
<path d="M1176.03 169.008H1180.21" stroke="#237F61" stroke-width="2" stroke-linecap="round"/>
<path d="M1166.01 162.743L1168.51 161.49" stroke="#237F61" stroke-width="2" stroke-linecap="round"/>
<path d="M1157.24 156.061L1161.83 155.644" stroke="#237F61" stroke-width="2" stroke-linecap="round"/>
<path d="M1146.79 164.414L1150.97 162.743" stroke="#237F61" stroke-width="2" stroke-linecap="round"/>
<path d="M1167.26 149.797H1171.85" stroke="#237F61" stroke-width="2" stroke-linecap="round"/>
<path d="M1169.4 175.063L1172.46 174.299" stroke="#237F61" stroke-width="2" stroke-linecap="round"/>
<path d="M1467.6 128.592H1469.66" stroke="#237F61" stroke-width="2" stroke-linecap="round"/>
<path d="M1462.62 133.182C1462.75 133.248 1462.88 133.313 1463.25 133.38C1463.61 133.447 1464.2 133.512 1464.6 133.612C1465.01 133.711 1465.2 133.843 1465.41 133.978" stroke="#237F61" stroke-width="2" stroke-linecap="round"/>
<path d="M1468.59 139.746H1469.98" stroke="#237F61" stroke-width="2" stroke-linecap="round"/>
<path d="M1473.56 133.978H1474.16" stroke="#237F61" stroke-width="2" stroke-linecap="round"/>
<path d="M1456.06 125.425L1457.65 125.226" stroke="#237F61" stroke-width="2" stroke-linecap="round"/>
<path d="M1469.18 124.629H1470.78" stroke="#237F61" stroke-width="2" stroke-linecap="round"/>
<path d="M1452.48 132.585L1453.67 131.79" stroke="#237F61" stroke-width="2" stroke-linecap="round"/>
<path d="M1460.43 140.144H1462.22" stroke="#237F61" stroke-width="2" stroke-linecap="round"/>
<path d="M1461.43 121.247L1464.61 121.645" stroke="#237F61" stroke-width="2" stroke-linecap="round"/>
<path d="M196.6 131.158C196.531 135.453 197.211 136.959 197.657 137.709C198.44 138.733 199.804 139.962 201.204 140.681C201.514 140.785 201.717 140.785 202.131 140.99" stroke="#A3A19D" stroke-width="2" stroke-linecap="round"/>
<path d="M225.764 142.013C229.475 141.358 231.212 140.637 232.64 140.121C233.401 139.689 234.062 139.32 234.498 139.174C234.718 139.101 234.934 139.029 235.375 138.736" stroke="#A3A19D" stroke-width="2" stroke-linecap="round"/>
<mask id="path-48-inside-1_358_214" fill="white">
<path d="M1852.34 128.34C1902.31 164.638 1888.64 78.3727 1852.34 128.34C1891.2 156.572 1816.04 178.308 1852.34 128.34C1816.04 178.308 1813.48 100.108 1852.34 128.34C1888.64 78.3727 1802.37 92.0423 1852.34 128.34Z"/>
</mask>
<path d="M1852.34 128.34C1902.31 164.638 1888.64 78.3727 1852.34 128.34C1891.2 156.572 1816.04 178.308 1852.34 128.34C1816.04 178.308 1813.48 100.108 1852.34 128.34C1888.64 78.3727 1802.37 92.0423 1852.34 128.34Z" fill="#FBED56"/>
<path d="M1852.34 128.34L1853.15 128.928C1857.64 122.742 1861.75 118.723 1865.37 116.316C1868.98 113.91 1872.07 113.139 1874.59 113.361C1879.57 113.799 1882.89 118.234 1883.7 123.371C1884.52 128.508 1882.73 133.752 1878.13 135.707C1875.81 136.696 1872.63 136.919 1868.44 135.749C1864.26 134.579 1859.11 132.025 1852.93 127.531L1852.34 128.34L1851.75 129.149C1858.06 133.73 1863.42 136.421 1867.91 137.675C1872.4 138.931 1876.06 138.76 1878.92 137.547C1884.68 135.097 1886.57 128.704 1885.68 123.058C1884.78 117.412 1881 111.918 1874.77 111.369C1871.68 111.097 1868.14 112.067 1864.26 114.65C1860.38 117.231 1856.11 121.446 1851.53 127.753L1852.34 128.34ZM1852.34 128.34L1851.53 127.753C1846.96 134.044 1844.11 139.254 1842.57 143.504C1841.04 147.743 1840.78 151.116 1841.53 153.672C1842.3 156.279 1844.08 157.92 1846.31 158.688C1848.51 159.443 1851.09 159.345 1853.58 158.626C1858.53 157.196 1863.51 153.166 1864.61 147.468C1865.73 141.689 1862.79 134.694 1852.93 127.531L1852.34 128.34L1851.75 129.149C1861.32 136.102 1863.56 142.411 1862.65 147.087C1861.73 151.843 1857.47 155.418 1853.02 156.705C1850.82 157.344 1848.66 157.383 1846.96 156.797C1845.3 156.225 1844.02 155.05 1843.45 153.109C1842.87 151.117 1843 148.211 1844.45 144.185C1845.91 140.17 1848.65 135.128 1853.15 128.928L1852.34 128.34ZM1852.34 128.34L1852.93 127.531C1843.07 120.368 1835.5 119.729 1830.36 122.582C1825.28 125.395 1822.99 131.379 1823.16 136.524C1823.24 139.113 1823.95 141.603 1825.34 143.456C1826.76 145.343 1828.88 146.528 1831.59 146.45C1834.25 146.373 1837.38 145.086 1840.94 142.318C1844.51 139.542 1848.58 135.22 1853.15 128.928L1852.34 128.34L1851.53 127.753C1847.03 133.953 1843.08 138.117 1839.71 140.739C1836.33 143.369 1833.61 144.391 1831.53 144.451C1829.51 144.509 1828 143.659 1826.94 142.253C1825.86 140.815 1825.23 138.757 1825.15 136.458C1825 131.829 1827.09 126.679 1831.33 124.331C1835.49 122.023 1842.18 122.196 1851.75 129.149L1852.34 128.34ZM1852.34 128.34L1852.93 127.531C1846.74 123.038 1842.72 118.935 1840.32 115.316C1837.91 111.699 1837.14 108.606 1837.36 106.088C1837.8 101.114 1842.23 97.7924 1847.37 96.9784C1852.51 96.1643 1857.75 97.9519 1859.71 102.547C1860.7 104.873 1860.92 108.053 1859.75 112.236C1858.58 116.423 1856.02 121.567 1851.53 127.753L1852.34 128.34L1853.15 128.928C1857.73 122.622 1860.42 117.263 1861.68 112.775C1862.93 108.283 1862.76 104.616 1861.55 101.764C1859.1 96.0036 1852.7 94.1083 1847.06 95.003C1841.41 95.8977 1835.92 99.6766 1835.37 105.913C1835.1 109 1836.07 112.539 1838.65 116.423C1841.23 120.303 1845.45 124.568 1851.75 129.149L1852.34 128.34Z" fill="#237F61" mask="url(#path-48-inside-1_358_214)"/>
<path d="M104 97.6733C106.881 97.672 109.667 98.7103 111.845 100.597C114.022 102.484 115.446 105.093 115.854 107.945L115.932 108.482L116.461 108.362C117.203 108.193 117.969 108.098 118.757 108.077L119.097 108.072C121.763 108.071 124.352 108.961 126.455 110.6C128.558 112.239 130.053 114.533 130.703 117.119C131.353 119.704 131.122 122.432 130.045 124.871C128.968 127.309 127.108 129.318 124.76 130.58L124.341 130.805L124.544 131.235C125.799 133.885 126.037 136.904 125.214 139.718C124.39 142.533 122.562 144.948 120.076 146.503C117.59 148.059 114.62 148.648 111.729 148.159C108.837 147.669 106.225 146.136 104.39 143.849L103.999 143.362L103.609 143.849C101.775 146.141 99.1631 147.679 96.2695 148.17C93.3761 148.662 90.403 148.073 87.915 146.516C85.4269 144.959 83.5973 142.542 82.7744 139.725C81.9516 136.908 82.1922 133.886 83.4512 131.235L83.6553 130.805L83.2363 130.581C80.6872 129.21 78.7213 126.961 77.7021 124.252C76.683 121.543 76.6797 118.556 77.6934 115.845C78.7071 113.134 80.6694 110.882 83.2158 109.506C85.7622 108.131 88.7209 107.724 91.5439 108.362L92.0723 108.481L92.1494 107.945C92.5582 105.093 93.9815 102.485 96.1582 100.598C98.1989 98.8293 100.773 97.8057 103.461 97.6851L104 97.6733Z" fill="#8FBFFA" stroke="#237F61"/>
<path d="M104 132.719C109.303 132.719 112.286 129.736 112.286 124.433C112.286 119.13 109.303 116.147 104 116.147C98.6971 116.147 95.7142 119.13 95.7142 124.433C95.7142 129.736 98.6971 132.719 104 132.719Z" fill="#2859C5"/>
<path d="M141 110.907C143.157 110.906 145.242 111.683 146.872 113.096C148.502 114.508 149.568 116.461 149.874 118.596L149.95 119.133L150.48 119.013C150.956 118.904 151.445 118.837 151.947 118.81L152.452 118.796C154.448 118.796 156.386 119.462 157.96 120.688C159.534 121.915 160.654 123.632 161.141 125.567C161.628 127.502 161.454 129.545 160.648 131.37C159.842 133.196 158.45 134.7 156.692 135.644L156.273 135.869L156.476 136.298C157.415 138.282 157.594 140.543 156.978 142.649C156.361 144.756 154.992 146.563 153.131 147.728C151.27 148.892 149.047 149.333 146.883 148.967C144.719 148.601 142.764 147.452 141.39 145.74L140.999 145.254L140.61 145.741C139.237 147.456 137.281 148.608 135.115 148.976C132.95 149.344 130.724 148.903 128.862 147.737C126.999 146.572 125.63 144.763 125.014 142.654C124.398 140.545 124.578 138.283 125.521 136.299L125.725 135.869L125.306 135.644C123.398 134.617 121.926 132.935 121.163 130.907C120.4 128.879 120.398 126.644 121.156 124.614C121.915 122.585 123.384 120.899 125.29 119.869C127.196 118.84 129.411 118.535 131.524 119.013L132.052 119.132L132.129 118.596C132.435 116.461 133.501 114.509 135.13 113.097C136.658 111.773 138.585 111.006 140.597 110.916L141 110.907Z" fill="#F4BFB8" stroke="#237F61"/>
<path d="M141 137.373C145.023 137.373 147.286 135.11 147.286 131.087C147.286 127.065 145.023 124.802 141 124.802C136.977 124.802 134.714 127.065 134.714 131.087C134.714 135.11 136.977 137.373 141 137.373Z" fill="#E98880"/>
<path d="M127 137.142C128.433 137.141 129.817 137.657 130.9 138.595C131.982 139.533 132.69 140.829 132.893 142.247L132.97 142.784L133.498 142.664C133.814 142.592 134.139 142.547 134.472 142.529L134.809 142.521C136.134 142.52 137.421 142.962 138.466 143.776C139.511 144.591 140.254 145.732 140.578 147.017C140.901 148.302 140.786 149.658 140.25 150.87C139.715 152.082 138.791 153.081 137.623 153.708L137.204 153.933L137.409 154.362C138.032 155.68 138.15 157.181 137.741 158.58C137.331 159.979 136.422 161.179 135.187 161.952C133.951 162.726 132.475 163.019 131.037 162.775C129.6 162.532 128.302 161.77 127.39 160.633L126.999 160.146L126.61 160.634C125.698 161.773 124.4 162.537 122.961 162.781C121.523 163.026 120.045 162.733 118.808 161.959C117.571 161.185 116.662 159.984 116.253 158.584C115.844 157.184 115.963 155.681 116.589 154.363L116.793 153.934L116.374 153.708C115.107 153.027 114.13 151.909 113.623 150.562C113.117 149.216 113.116 147.731 113.62 146.384C114.123 145.036 115.099 143.917 116.365 143.233C117.63 142.55 119.101 142.347 120.504 142.664L121.033 142.784L121.109 142.247C121.312 140.83 122.02 139.534 123.102 138.596C124.116 137.716 125.396 137.207 126.732 137.147L127 137.142Z" fill="#EEFA8F" stroke="#237F61"/>
<path d="M127 155.027C129.743 155.027 131.286 153.485 131.286 150.742C131.286 147.999 129.743 146.456 127 146.456C124.257 146.456 122.714 147.999 122.714 150.742C122.714 153.485 124.257 155.027 127 155.027Z" fill="#9BC528"/>
<path d="M1145.52 27.8308C1145.7 27.8655 1146.04 28.0119 1146.54 28.3367C1147.06 28.6702 1147.68 29.1556 1148.35 29.7843C1149.69 31.0415 1151.21 32.8524 1152.47 35.1207C1154.97 39.6469 1156.39 45.9872 1153.19 53.4361C1152.25 55.6056 1151.58 57.2441 1151.07 58.4632C1150.56 59.6954 1150.21 60.4757 1149.91 60.9741C1149.62 61.4625 1149.42 61.5899 1149.24 61.6402C1149 61.7069 1148.69 61.6778 1148.03 61.5927C1146.7 61.4224 1145.86 61.3579 1145.33 60.4207C1145.05 59.9204 1144.83 59.13 1144.77 57.8513C1144.71 56.5774 1144.81 54.8589 1145.1 52.5338C1145.71 47.8031 1145.38 41.3918 1145.18 36.2622C1145.09 33.6803 1145.02 31.4313 1145.12 29.8487C1145.17 29.0508 1145.26 28.4675 1145.38 28.1056C1145.44 27.9469 1145.49 27.8667 1145.52 27.8308Z" fill="#99AAB5" stroke="#237F61"/>
<path d="M1145.65 54.2203C1146.64 46.5077 1145.35 33.364 1146.82 33.5529C1148.29 33.7418 1156.11 42.3197 1151.5 54.975C1148.88 62.1746 1149.23 62.2519 1147.61 62.0435C1146 61.8351 1144.65 61.9306 1145.65 54.2203Z" fill="#F4ABBA"/>
<path d="M1129.25 30.3026C1129.43 30.2908 1129.81 30.3426 1130.37 30.5285C1130.95 30.7191 1131.68 31.0293 1132.49 31.4647C1134.11 32.3354 1136.04 33.6946 1137.84 35.5656C1141.3 39.1824 1144.23 44.7038 1143.33 52.3388L1143.23 53.0842C1142.89 55.4208 1142.66 57.1762 1142.48 58.4855C1142.3 59.8089 1142.16 60.6521 1142 61.2104C1141.85 61.7577 1141.69 61.931 1141.53 62.0255C1141.31 62.1512 1141 62.2037 1140.34 62.2908C1139.02 62.4649 1138.19 62.6182 1137.43 61.8486C1137.03 61.4378 1136.62 60.7292 1136.23 59.5091C1135.9 58.4456 1135.59 57.023 1135.31 55.1273L1135.19 54.2851L1135.06 53.3829C1134.32 48.7974 1132.5 43.1385 1131.09 38.5376C1130.33 36.0674 1129.7 33.9104 1129.38 32.3556C1129.23 31.5716 1129.16 30.9849 1129.19 30.6029C1129.21 30.4357 1129.23 30.345 1129.25 30.3026Z" fill="#99AAB5" stroke="#237F61"/>
<path d="M1136.14 55.7747C1135.13 48.0673 1130.51 35.6911 1131.98 35.4985C1133.44 35.306 1143.21 41.5892 1142 55.0018C1141.31 62.6322 1141.67 62.6189 1140.06 62.8332C1138.44 63.0452 1137.16 63.4825 1136.14 55.7747Z" fill="#F4ABBA"/>
<path d="M1193.56 91.4326C1197.65 91.9601 1200.54 95.7059 1200.01 99.7987C1199.49 103.891 1195.74 106.781 1191.65 106.254C1187.56 105.727 1184.67 101.982 1185.19 97.8892C1185.72 93.7962 1189.47 90.9053 1193.56 91.4326Z" fill="#CCD6DD" stroke="#237F61"/>
<path d="M1142.61 57.309C1148.04 58.0093 1151.75 59.4319 1153.74 62.1258L1153.92 62.3598L1154.21 62.3242C1157.63 61.901 1161.64 62.0568 1166.26 62.6527C1174.29 63.6872 1181.82 66.8302 1187.07 71.6878C1192.3 76.5341 1195.28 83.0876 1194.26 91.018C1193.33 98.2143 1191 102.657 1187.38 105.232L1186.82 105.632L1187.37 106.042C1187.53 106.159 1187.66 106.318 1187.73 106.5C1188.13 107.636 1188.21 108.555 1188.06 109.297C1187.92 110.035 1187.55 110.636 1186.97 111.13C1185.79 112.145 1183.75 112.716 1181.08 112.943C1175.78 113.395 1168.5 112.459 1162.25 111.653C1158.84 111.214 1156.09 110.789 1154.23 110.1C1153.31 109.757 1152.66 109.367 1152.27 108.924C1151.9 108.508 1151.74 108.021 1151.82 107.39C1151.82 107.385 1151.82 107.377 1151.83 107.368C1151.86 107.326 1151.91 107.265 1151.99 107.187C1152.15 107.032 1152.4 106.842 1152.72 106.63C1153.36 106.208 1154.27 105.728 1155.32 105.271L1156.36 104.818L1155.32 104.356C1152.67 103.174 1150.18 101.654 1147.91 99.8325L1147.24 99.2931L1147.11 100.143C1146.72 102.566 1146.18 104.942 1145.33 106.645C1144.9 107.494 1144.42 108.141 1143.86 108.549C1143.31 108.946 1142.68 109.132 1141.91 109.033C1141.47 108.975 1141.19 108.804 1141.01 108.553C1140.8 108.281 1140.66 107.867 1140.58 107.267C1140.43 106.05 1140.58 104.345 1140.72 102.173C1140.98 97.8971 1141.15 92.0955 1138.46 85.9153L1138.4 85.6103L1138.05 85.5627L1137.18 85.4408C1132.85 84.8185 1128.82 83.9422 1125.94 82.2229C1124.42 81.3125 1123.24 80.1774 1122.51 78.7361C1121.78 77.2966 1121.47 75.5092 1121.76 73.2569C1122.37 68.5993 1125.22 64.306 1129.13 61.3234C1133.03 58.3408 1137.95 56.7084 1142.61 57.309Z" fill="#99AAB5" stroke="#237F61"/>
<path d="M1135.5 69.6691C1136.75 69.8299 1137.89 68.9487 1138.05 67.7011C1138.21 66.4534 1137.33 65.3117 1136.08 65.1509C1134.84 64.9902 1133.7 65.8713 1133.53 67.119C1133.37 68.3666 1134.26 69.5084 1135.5 69.6691Z" fill="#292F33"/>
<path d="M1125.88 73.0234C1125.56 75.5174 1124.17 77.3961 1123.04 77.2505C1121.91 77.105 1121.04 74.9353 1121.37 72.4413C1121.69 69.9472 1122.67 70.3126 1123.92 70.4732C1125.16 70.6339 1126.21 70.5293 1125.88 73.0234Z" fill="#F4ABBA"/>
<path d="M57.8607 166.153C57.7294 165.522 57.4479 164.304 56.0411 162.788C54.6099 161.25 51.9697 159.352 47.022 157.515C43.6333 156.255 41.869 154.091 41.2167 151.724C40.5784 149.407 41.0375 147.006 41.8636 145.246C42.0374 144.876 42.2373 144.487 42.4634 144.081C43.4726 146.49 45.5377 148.428 47.7415 149.975C50.7782 151.968 54.166 153.868 55.217 157.513C55.3235 157.883 55.7888 157.983 55.9138 157.62C56.4859 155.948 55.5106 153.845 54.6857 152.496C52.046 148.171 45.2771 148.312 44.7425 141.778C44.5335 140.104 44.5703 136.377 45.1698 133.522C45.2826 132.988 45.7394 132.586 46.2832 132.636C46.3823 132.642 46.4802 132.66 46.575 132.69C46.9916 132.837 47.339 133.133 47.55 133.521C47.761 133.909 47.8204 134.361 47.7169 134.791C47.1917 136.455 46.9065 138.179 47.0191 139.921C49.3235 139.121 52.385 139.348 56.5263 141.292C59.5197 142.697 61.4744 144.686 62.6236 146.981C63.7661 149.265 64.0857 151.795 63.9185 154.255C63.5914 159.149 61.3375 163.951 59.4508 166.501L58.2649 168.104L57.8607 166.153Z" fill="#237F61"/>
<path d="M1598.32 159.841C1604.55 163.201 1617.56 166.573 1626.59 151.302C1619.13 152.058 1615.2 143.451 1608.97 140.093C1602.74 136.732 1595.72 137.652 1592.36 143.884C1589 150.115 1592.09 156.481 1598.32 159.841Z" fill="#237F61"/>
<path d="M1616.2 155.803C1622.54 155.611 1626.2 152.039 1626.48 151.519C1626.48 151.519 1623.35 154.282 1616.13 153.076C1616.69 151.642 1618.99 149.184 1618.99 149.184C1618.36 149.011 1615.02 150.138 1613.18 152.413C1611.73 151.999 1610.3 151.495 1608.9 150.904L1609.45 149.829C1611.6 145.655 1615.36 145.362 1615.36 145.362C1614.58 144.957 1609.01 143.671 1606.39 148.781L1605.98 149.568C1605.44 149.302 1604.91 149.026 1604.38 148.742L1602.08 147.501L1602.79 146.175C1605.02 142.042 1609.68 140.509 1609.68 140.509C1608.9 140.088 1602.35 139.94 1599.62 144.996L1599.13 145.911L1588.81 140.344C1588.03 139.923 1587.02 140.279 1586.6 141.057C1586.18 141.836 1586.44 142.871 1587.22 143.291L1597.54 148.857L1597.5 148.93C1594.78 153.986 1598.28 159.798 1599.06 160.219C1599.06 160.219 1598 155.063 1600.23 150.93L1600.49 150.447L1604.85 152.798C1604.92 152.836 1604.99 152.867 1605.06 152.905C1604.11 158.196 1609.2 162.458 1610.03 162.674C1610.03 162.674 1607.27 158.57 1608.01 154.264C1609.82 154.972 1611.5 155.405 1613.07 155.625C1614.01 158.469 1617.3 160.309 1617.98 160.348C1617.98 160.348 1616.24 157.732 1616.18 156.202L1616.2 155.803Z" fill="#77B255"/>
<path d="M1608.02 137.572C1607.8 137.637 1607.56 137.624 1607.35 137.533C1607.14 137.443 1606.96 137.282 1606.85 137.077C1606.75 136.872 1606.71 136.636 1606.76 136.409C1606.81 136.183 1606.93 135.979 1607.11 135.834C1607.25 135.721 1610.47 133.055 1609.57 128.663C1609.55 128.534 1609.54 128.401 1609.57 128.271C1609.59 128.141 1609.64 128.017 1609.72 127.907C1609.79 127.797 1609.88 127.702 1609.99 127.627C1610.1 127.553 1610.22 127.501 1610.35 127.475C1610.48 127.449 1610.61 127.448 1610.74 127.473C1610.87 127.498 1611 127.549 1611.11 127.622C1611.22 127.696 1611.31 127.79 1611.38 127.899C1611.46 128.009 1611.51 128.132 1611.53 128.262C1612.68 133.88 1608.54 137.255 1608.36 137.395C1608.26 137.475 1608.15 137.535 1608.02 137.572ZM1613.96 139.97C1613.74 140.037 1613.49 140.022 1613.28 139.928C1613.06 139.834 1612.88 139.667 1612.78 139.456C1612.68 139.245 1612.65 139.004 1612.7 138.775C1612.76 138.546 1612.89 138.344 1613.08 138.205C1613.24 138.086 1616.93 135.268 1615.89 128.818C1615.87 128.688 1615.87 128.555 1615.9 128.427C1615.93 128.299 1615.99 128.178 1616.06 128.071C1616.14 127.964 1616.24 127.874 1616.35 127.806C1616.46 127.737 1616.59 127.692 1616.72 127.672C1616.98 127.63 1617.25 127.694 1617.46 127.849C1617.68 128.004 1617.82 128.239 1617.86 128.5C1619.11 136.217 1614.46 139.68 1614.26 139.823C1614.17 139.889 1614.07 139.938 1613.96 139.97ZM1618.56 144.857C1618.34 144.919 1618.12 144.91 1617.91 144.83C1617.7 144.75 1617.53 144.604 1617.42 144.414C1617.3 144.224 1617.25 144.002 1617.28 143.782C1617.3 143.562 1617.4 143.357 1617.56 143.198C1617.58 143.176 1619.75 140.937 1620 138.795C1620.03 138.538 1620.17 138.307 1620.38 138.149C1620.58 137.991 1620.84 137.919 1621.1 137.949C1621.36 137.978 1621.59 138.107 1621.76 138.307C1621.92 138.508 1622 138.764 1621.98 139.023C1621.66 141.855 1619.09 144.49 1618.98 144.601C1618.86 144.72 1618.72 144.808 1618.56 144.857Z" fill="#5DADEC"/>
<path d="M780.492 82.841C774.26 86.2006 761.25 89.5731 752.221 74.3019C759.683 75.0575 763.613 66.4512 769.846 63.0929C776.078 59.7324 783.094 60.6518 786.454 66.8837C789.814 73.1154 786.725 79.4808 780.492 82.841Z" fill="#237F61"/>
<path d="M762.616 78.8034C756.277 78.6108 752.618 75.039 752.337 74.5186C752.337 74.5186 755.462 77.2821 762.684 76.0763C762.12 74.6422 759.827 72.184 759.827 72.184C760.456 72.0112 763.798 73.1383 765.629 75.4133C767.087 74.9986 768.519 74.4947 769.915 73.9044L769.36 72.829C767.218 68.6549 763.45 68.3616 763.45 68.3616C764.237 67.9574 769.8 66.6714 772.429 71.7813L772.833 72.5683C773.37 72.3016 773.903 72.0262 774.431 71.7421L776.734 70.5005L776.021 69.175C773.792 65.0419 769.13 63.5093 769.13 63.5093C769.91 63.0882 776.465 62.9404 779.19 67.9957L779.684 68.911L790.007 63.3443C790.787 62.9232 791.793 63.2788 792.212 64.0568C792.632 64.8361 792.376 65.871 791.597 66.2911L781.273 71.8565L781.313 71.93C784.038 76.9862 780.537 82.7983 779.757 83.2191C779.757 83.2191 780.812 78.0632 778.583 73.93L778.324 73.4473L773.965 75.7978C773.894 75.8361 773.827 75.8669 773.756 75.9052C774.703 81.1962 769.612 85.4581 768.786 85.6743C768.786 85.6743 771.545 81.57 770.804 77.2645C768.999 77.9715 767.31 78.4051 765.744 78.6251C764.806 81.4685 761.515 83.309 760.839 83.3476C760.839 83.3476 762.573 80.7321 762.638 79.2023L762.616 78.8034Z" fill="#77B255"/>
<path d="M770.791 60.5721C771.013 60.6374 771.251 60.6237 771.464 60.5334C771.677 60.443 771.852 60.2817 771.959 60.0768C772.067 59.8718 772.1 59.636 772.053 59.4094C772.006 59.1827 771.883 58.9793 771.703 58.8337C771.563 58.7209 768.343 56.055 769.24 51.6629C769.268 51.5338 769.269 51.4005 769.245 51.2708C769.221 51.1411 769.171 51.0174 769.099 50.907C769.027 50.7965 768.933 50.7015 768.824 50.6274C768.715 50.5532 768.592 50.5014 768.463 50.475C768.333 50.4485 768.2 50.4479 768.071 50.4732C767.941 50.4985 767.818 50.5492 767.708 50.6224C767.598 50.6955 767.504 50.7897 767.431 50.8995C767.357 51.0093 767.306 51.1325 767.281 51.262C766.133 56.8798 770.278 60.2548 770.455 60.3955C770.555 60.4752 770.669 60.5352 770.791 60.5721ZM764.853 62.9697C765.079 63.0369 765.321 63.0222 765.537 62.9283C765.753 62.8344 765.929 62.6672 766.034 62.4563C766.139 62.2454 766.166 62.0042 766.11 61.7753C766.055 61.5464 765.92 61.3445 765.73 61.2051C765.57 61.086 761.886 58.2679 762.925 51.8179C762.948 51.6881 762.944 51.5553 762.914 51.427C762.884 51.2988 762.829 51.1778 762.752 51.0711C762.675 50.9644 762.577 50.8742 762.465 50.8057C762.352 50.7372 762.227 50.6918 762.097 50.6722C761.836 50.6301 761.568 50.6938 761.353 50.8491C761.138 51.0044 760.994 51.2386 760.952 51.5003C759.706 59.2175 764.356 62.6797 764.554 62.8226C764.649 62.8893 764.749 62.9383 764.853 62.9697ZM760.257 67.8566C760.47 67.9194 760.697 67.9101 760.903 67.83C761.11 67.7499 761.284 67.6036 761.398 67.4139C761.513 67.2243 761.561 67.002 761.536 66.782C761.51 66.562 761.413 66.3566 761.258 66.198C761.237 66.1759 759.063 63.9374 758.818 61.7948C758.78 61.5382 758.643 61.3065 758.437 61.1486C758.231 60.9907 757.972 60.919 757.715 60.9486C757.457 60.9782 757.221 61.1067 757.056 61.3072C756.891 61.5076 756.811 61.7642 756.832 62.0227C757.156 64.8548 759.724 67.4902 759.833 67.6011C759.951 67.7205 760.097 67.8084 760.257 67.8566Z" fill="#5DADEC"/>
</svg>
