<svg width="1920" height="473" viewBox="0 0 1920 473" fill="none" xmlns="http://www.w3.org/2000/svg">
<path d="M0 191.571C0 191.571 98 103.032 352 163.716C716 250.68 1182.5 273.611 1421 153.105C1659.5 32.5979 1920 222.078 1920 222.078V439.611C1920 439.611 1349.5 298.637 921.5 398.216C493.5 497.795 0 439.611 0 439.611V191.571Z" fill="#237F61"/>
<path d="M0 197.571C0 197.571 98 109.032 352 169.716C716 256.68 1182.5 279.611 1421 159.105C1659.5 38.5979 1920 228.078 1920 228.078V445.611C1920 445.611 1349.5 304.637 921.5 404.216C493.5 503.795 0 445.611 0 445.611V197.571Z" fill="#B0965F"/>
<path d="M0 207.355C0 207.355 98 118.816 352 179.5C716 266.464 1182.5 289.395 1421 168.889C1659.5 48.3819 1920 237.862 1920 237.862V455.395C1920 455.395 1349.5 314.421 921.5 414C493.5 513.579 0 455.395 0 455.395V207.355Z" fill="#D7B979"/>
<path d="M237 190.5C237 202.374 213.943 190.5 185.5 190.5C157.057 190.5 134 202.374 134 190.5C134 178.626 157.057 169 185.5 169C213.943 169 237 178.626 237 190.5Z" fill="#A58E4F"/>
<path d="M1671 163.5C1671 175.374 1647.94 163.5 1619.5 163.5C1591.06 163.5 1568 175.374 1568 163.5C1568 151.626 1591.06 142 1619.5 142C1647.94 142 1671 151.626 1671 163.5Z" fill="#A58E4F"/>
<path d="M354 257.5C354 269.374 358.227 273 321.5 273C284.773 273 221 269.374 221 257.5C221 245.626 250.773 236 287.5 236C324.227 236 354 245.626 354 257.5Z" fill="#A58E4F"/>
<path d="M470.281 257.5C470.281 269.374 474.508 273 437.781 273C401.054 273 378.781 273.374 378.781 261.5C378.781 249.626 367.054 236 403.781 236C440.508 236 470.281 245.626 470.281 257.5Z" fill="#A58E4F"/>
<path d="M802 278C802 284.075 785.292 285.5 769 285.5C752.708 285.5 743 284.075 743 278C743 271.925 746.708 266 763 266C779.292 266 802 271.925 802 278Z" fill="#A58E4F"/>
<path d="M470 419C470 425.075 486.708 426.5 503 426.5C519.292 426.5 529 425.075 529 419C529 412.925 525.292 407 509 407C492.708 407 470 412.925 470 419Z" fill="#A58E4F"/>
<path d="M1773 371C1773 377.075 1789.71 378.5 1806 378.5C1822.29 378.5 1832 377.075 1832 371C1832 364.925 1828.29 359 1812 359C1795.71 359 1773 364.925 1773 371Z" fill="#A58E4F"/>
<path d="M1428 238C1428 244.075 1444.71 245.5 1461 245.5C1477.29 245.5 1487 244.075 1487 238C1487 231.925 1483.29 226 1467 226C1450.71 226 1428 231.925 1428 238Z" fill="#A58E4F"/>
<path d="M1145 310.692C1145 320.662 1119.23 323 1094.1 323C1068.97 323 1054 320.662 1054 310.692C1054 300.723 1059.72 291 1084.85 291C1109.98 291 1145 300.723 1145 310.692Z" fill="#A58E4F"/>
<path d="M1202 310.846C1202 315.831 1188.97 317 1176.27 317C1163.57 317 1156 315.831 1156 310.846C1156 305.861 1158.89 301 1171.59 301C1184.3 301 1202 305.861 1202 310.846Z" fill="#A58E4F"/>
<path d="M1134.92 289.258H1136.35" stroke="#237F61" stroke-width="5" stroke-linecap="round"/>
<path d="M1136 312H1137.43" stroke="#237F61" stroke-width="5" stroke-linecap="round"/>
<path d="M1152 283H1153.43" stroke="#237F61" stroke-width="5" stroke-linecap="round"/>
<path d="M1473 205H1474.43" stroke="#237F61" stroke-width="5" stroke-linecap="round"/>
<path d="M1465 222H1466.43" stroke="#237F61" stroke-width="5" stroke-linecap="round"/>
<path d="M1457 205H1458.43" stroke="#237F61" stroke-width="5" stroke-linecap="round"/>
<path d="M1479 222H1480.43" stroke="#237F61" stroke-width="5" stroke-linecap="round"/>
<path d="M1486 215H1487.43" stroke="#237F61" stroke-width="5" stroke-linecap="round"/>
<path d="M1153 307H1154.43" stroke="#237F61" stroke-width="5" stroke-linecap="round"/>
<path d="M1162 297H1163.43" stroke="#237F61" stroke-width="5" stroke-linecap="round"/>
<path d="M1144.24 300.012H1145.67" stroke="#237F61" stroke-width="5" stroke-linecap="round"/>
<path d="M1121 297H1122.43" stroke="#237F61" stroke-width="5" stroke-linecap="round"/>
<path d="M1677.37 89.4139C1677.37 89.4139 1683.11 83.6747 1689.16 85.3821C1695.2 87.0896 1699.08 90.185 1699.55 96.552C1700.01 102.919 1698.49 107.678 1693.65 110.817C1687.45 114.849 1680 112.216 1680 112.216L1677.37 89.4139Z" fill="#ECF0F2"/>
<path d="M1653.83 88.478L1628.26 102.706L1614.78 92.1206C1614.78 92.0768 1614.79 92.0285 1614.79 91.9761C1614.82 91.7182 1614.85 91.3631 1614.89 90.9761C1614.97 90.2026 1615.06 89.2982 1615.11 88.7788L1615.11 88.7778C1615.17 88.1934 1615.1 87.5994 1615.02 87.1655C1615.01 87.1112 1615 87.0592 1614.99 87.0093L1625.46 86.1333H1625.46L1647.51 84.1772L1653.83 88.478ZM1634.64 4.56299C1636.2 4.50328 1637.51 4.86986 1638.63 5.62744C1639.74 6.3888 1640.69 7.56935 1641.47 9.19287C1643.02 12.4543 1643.84 17.4071 1643.99 23.9819C1644.14 30.5164 1643.1 36.2077 1642.03 40.2651C1641.49 42.2931 1640.94 43.9112 1640.53 45.02C1640.33 45.5743 1640.15 46.0015 1640.03 46.2886C1640.02 46.3316 1640 46.371 1639.98 46.4077L1630.05 45.8696C1630.03 45.8323 1630.01 45.7915 1629.99 45.7466C1629.87 45.4859 1629.71 45.0978 1629.51 44.5952C1629.11 43.5899 1628.57 42.1247 1628.03 40.2935C1627.01 36.858 1625.98 32.1412 1625.79 26.7563L1625.77 25.6704C1625.7 20.8705 1626.23 15.6034 1627.65 11.52C1629.08 7.40829 1631.35 4.69429 1634.64 4.56396L1634.64 4.56299Z" fill="#A8A8A8" stroke="#237F61"/>
<path d="M1595.44 71.5465C1595.16 71.5462 1594.89 71.4404 1594.69 71.2503C1594.48 71.0603 1594.36 70.8001 1594.34 70.5222C1594.32 70.2443 1594.41 69.9694 1594.58 69.7527C1594.76 69.536 1595.01 69.3937 1595.28 69.3544C1595.4 69.3323 1598.27 68.9358 1601.4 68.8256C1604.85 68.7155 1605.78 68.6824 1608.78 69.2552C1609.37 69.3654 1609.77 69.9492 1609.65 70.5441C1609.53 71.1389 1608.95 71.5244 1608.36 71.4143C1605.61 70.8855 1604.82 70.9076 1601.47 71.0177C1598.47 71.1169 1595.62 71.5244 1595.59 71.5244C1595.54 71.5355 1595.49 71.5465 1595.44 71.5465ZM1594.3 79.1913C1593.81 79.1913 1593.35 78.8498 1593.23 78.3541C1593.09 77.7593 1593.45 77.1644 1594.05 77.0212C1594.2 76.9772 1597.93 76.0739 1600.22 75.6663C1602.5 75.2477 1606.62 74.752 1606.79 74.73C1606.94 74.71 1607.08 74.7191 1607.22 74.7568C1607.36 74.7946 1607.49 74.8601 1607.61 74.9495C1607.72 75.039 1607.82 75.1505 1607.89 75.2774C1607.96 75.4044 1608 75.5441 1608.02 75.6883C1608.04 75.8318 1608.03 75.9776 1607.99 76.1171C1607.95 76.2567 1607.88 76.3873 1607.79 76.5011C1607.7 76.615 1607.59 76.7099 1607.47 76.7803C1607.34 76.8507 1607.2 76.8952 1607.06 76.9111C1607.01 76.9111 1602.83 77.4288 1600.61 77.8364C1598.4 78.244 1594.61 79.1583 1594.58 79.1693C1594.47 79.1803 1594.39 79.1913 1594.3 79.1913Z" fill="#8E9395"/>
<path d="M1663.15 95.5606L1624.18 120.07C1624.18 120.07 1616.11 129.169 1617.92 131.086C1618.88 132.099 1622.65 133.003 1625.93 132.276C1630.63 131.24 1634.72 121.26 1634.72 121.26C1634.72 121.26 1632.65 135.426 1635.85 136.043C1639.06 136.66 1643.71 135.889 1645.78 132.066C1647.85 128.244 1648.56 123.584 1650.43 121.624C1652.29 119.663 1653.94 118.209 1653.94 118.209C1653.94 118.209 1654.98 119.453 1655.59 120.28C1656.21 121.106 1657.36 122.24 1657.36 122.24C1657.36 122.24 1652.52 125.237 1650.85 127.616C1649.14 130.051 1649.49 132.926 1651.98 133.928C1655.59 135.371 1671.21 129.07 1671.21 129.07L1668.11 94.437L1663.15 95.5606Z" fill="#A8A8A8"/>
<path d="M1665.89 17.9321C1672.5 13.9328 1676.86 13.9514 1679.45 15.7417C1682.06 17.5527 1683.12 21.3516 1682.71 25.519C1682.31 29.6258 1679.92 34.2353 1676.81 38.5405C1673.92 42.5643 1670.44 46.2689 1667.53 48.9702L1666.96 49.4976C1664.26 51.9351 1661.02 53.8754 1658.44 55.2095C1657.16 55.8753 1656.04 56.3875 1655.24 56.7329C1654.85 56.9056 1654.53 57.0371 1654.31 57.1245C1654.2 57.1681 1654.12 57.2004 1654.07 57.2222C1654.04 57.233 1654.02 57.2413 1654 57.2466C1654 57.2491 1653.99 57.2512 1653.99 57.2524C1653.99 57.2531 1653.99 57.2541 1653.98 57.2544H1653.98L1653.46 57.4546L1653.72 57.9546L1653.72 57.9644C1653.73 57.9714 1653.73 57.9823 1653.74 57.9966C1653.75 58.0251 1653.78 58.0679 1653.8 58.1235C1653.86 58.235 1653.94 58.3987 1654.04 58.606C1654.25 59.0216 1654.52 59.6118 1654.82 60.3071C1655.42 61.7032 1656.1 63.5026 1656.46 65.1626C1656.81 66.8159 1656.86 68.5568 1656.83 69.894C1656.81 70.5603 1656.77 71.1215 1656.73 71.5151C1656.71 71.7118 1656.69 71.8665 1656.68 71.9712C1656.67 72.0235 1656.67 72.064 1656.67 72.0903C1656.66 72.1033 1656.66 72.1134 1656.66 72.1196C1656.66 72.1226 1656.66 72.1251 1656.66 72.1265L1656.66 72.1274L1656.58 72.6968H1657.16C1657.17 72.6969 1657.18 72.6972 1657.2 72.6978C1657.23 72.6989 1657.28 72.7015 1657.35 72.7065C1657.5 72.7168 1657.71 72.7373 1658 72.7798C1658.57 72.8648 1659.43 73.0371 1660.53 73.3843C1662.61 74.0351 1665.55 75.3027 1669.16 77.7759L1669.89 78.2876C1673.84 81.111 1676.34 83.4624 1678.23 86.1772C1679.89 88.5577 1681.1 91.2392 1682.42 94.812L1682.99 96.3989C1684.87 101.724 1684.69 108.074 1683.57 113.684C1682.45 119.304 1680.41 124.082 1678.68 126.269C1676.95 128.432 1673.86 130.15 1670.23 131.419C1666.61 132.683 1662.54 133.478 1658.96 133.838C1657.16 134.019 1655.76 134.061 1654.67 133.981C1653.58 133.9 1652.85 133.698 1652.38 133.42C1651.93 133.157 1651.7 132.818 1651.61 132.387C1651.52 131.986 1651.54 131.482 1651.68 130.854L1651.74 130.577C1651.96 129.654 1652.79 128.657 1654.04 127.658C1655.26 126.673 1656.81 125.748 1658.34 124.948C1659.88 124.15 1661.38 123.484 1662.5 123.019C1663.06 122.787 1663.52 122.605 1663.84 122.481C1664 122.419 1664.13 122.371 1664.22 122.339C1664.26 122.324 1664.29 122.312 1664.31 122.304C1664.32 122.3 1664.33 122.296 1664.34 122.294C1664.34 122.294 1664.34 122.293 1664.34 122.292H1664.34L1665.21 121.98L1664.48 121.423L1664.47 121.422C1664.47 121.421 1664.47 121.42 1664.47 121.417C1664.46 121.413 1664.45 121.407 1664.44 121.399C1664.42 121.382 1664.39 121.357 1664.35 121.324C1664.26 121.258 1664.14 121.16 1663.98 121.035C1663.66 120.783 1663.22 120.419 1662.69 119.971C1661.77 119.187 1660.62 118.151 1659.53 117.017L1659.07 116.526L1659.07 116.525L1658.85 116.287C1656.79 113.869 1656.46 110.451 1657.91 107.028L1658.06 106.686C1659.18 104.254 1661.46 102.81 1663.18 101.786C1663.59 101.535 1663.99 101.302 1664.31 101.091C1664.62 100.888 1664.91 100.666 1665.1 100.422C1665.2 100.295 1665.29 100.127 1665.31 99.9233C1665.33 99.7059 1665.26 99.5087 1665.14 99.3472C1664.93 99.0656 1664.56 98.8737 1664.14 98.7163C1662.3 98.0219 1660.18 98.4903 1658.29 99.5366C1656.51 100.522 1654.86 102.057 1653.69 103.791L1653.46 104.14C1652.25 106.064 1651.82 108.797 1651.68 110.982C1651.61 112.086 1651.61 113.075 1651.62 113.787C1651.63 114.141 1651.65 114.427 1651.66 114.626C1651.59 114.668 1651.5 114.718 1651.41 114.775C1651.09 114.974 1650.64 115.266 1650.13 115.636C1649.19 116.328 1648.02 117.31 1647.1 118.5L1646.92 118.741H1646.92C1645.76 120.337 1645.25 121.826 1644.76 123.515C1644.27 125.202 1643.8 127.091 1642.73 129.589C1642.18 130.862 1641.73 131.911 1641.28 132.769C1640.83 133.626 1640.4 134.256 1639.91 134.707C1638.96 135.568 1637.68 135.871 1635.2 135.494H1635.2C1634.71 135.419 1634.4 135.229 1634.18 134.984C1633.96 134.729 1633.8 134.377 1633.71 133.926C1633.52 133.002 1633.61 131.858 1633.66 130.734C1633.69 130.207 1633.81 129.176 1633.94 127.865C1634.06 126.575 1634.18 125.051 1634.18 123.606C1634.18 122.174 1634.06 120.764 1633.69 119.729C1633.5 119.209 1633.23 118.739 1632.84 118.417C1632.48 118.122 1632.04 117.977 1631.55 118.001L1631.33 118.022H1631.33C1630.96 118.075 1630.68 118.277 1630.45 118.532C1630.23 118.78 1630.05 119.101 1629.89 119.451C1629.58 120.139 1629.27 121.1 1628.9 122.138C1628.17 124.122 1627.13 126.601 1625.06 128.971L1624.63 129.443C1623.29 130.863 1621.79 131.332 1620.53 131.327C1619.89 131.324 1619.32 131.202 1618.87 131.02C1618.46 130.858 1618.17 130.659 1618 130.481L1617.94 130.406L1617.94 130.405L1617.84 130.259C1617.63 129.909 1617.56 129.479 1617.63 128.917C1617.71 128.263 1617.95 127.495 1618.27 126.58C1618.9 124.782 1619.8 122.506 1619.91 119.881C1620.01 117.245 1619.19 114.221 1618.14 111.292C1617.61 109.821 1617.02 108.358 1616.46 106.966C1615.9 105.57 1615.36 104.249 1614.92 103.045C1614.08 100.724 1614.07 97.5864 1614.29 94.9761C1614.4 93.6809 1614.56 92.5345 1614.69 91.7124C1614.71 91.5973 1614.73 91.489 1614.75 91.3872C1614.98 91.6174 1615.27 91.8892 1615.62 92.188C1616.72 93.1091 1618.44 94.2972 1620.97 95.4019C1625.89 97.5534 1632.58 97.9398 1638.2 95.7251L1638.74 95.5024C1642.56 93.8585 1644.88 91.5181 1646.24 89.5786C1646.92 88.6102 1647.37 87.743 1647.64 87.1138C1647.78 86.7994 1647.87 86.544 1647.93 86.3647C1647.96 86.2751 1647.99 86.2044 1648 86.1548C1648.01 86.13 1648.01 86.1102 1648.02 86.0962C1648.02 86.0893 1648.02 86.0837 1648.02 86.0796C1648.02 86.0777 1648.02 86.076 1648.02 86.0747L1648.02 86.0728V86.0718L1648.35 84.8345L1647.27 85.522L1647.27 85.5229C1647.27 85.5233 1647.27 85.5242 1647.27 85.5249C1647.27 85.5266 1647.26 85.5292 1647.26 85.5327C1647.24 85.5402 1647.23 85.5518 1647.2 85.5669C1647.15 85.5972 1647.08 85.6418 1646.98 85.6997C1646.78 85.8156 1646.49 85.9829 1646.11 86.1841C1645.36 86.5866 1644.26 87.1251 1642.91 87.6675C1640.21 88.7537 1636.5 89.8455 1632.44 89.894C1628.38 89.9427 1625.59 89.0806 1623.83 88.2241C1622.94 87.7954 1622.31 87.367 1621.91 87.0503C1621.71 86.8919 1621.56 86.7606 1621.47 86.6724C1621.42 86.6283 1621.39 86.595 1621.37 86.5737C1621.36 86.5631 1621.35 86.5556 1621.35 86.5513L1621.34 86.5474L1621.15 86.3257L1620.86 86.3931L1620.86 86.394C1620.85 86.3943 1620.85 86.3944 1620.85 86.395C1620.84 86.3964 1620.83 86.399 1620.82 86.4019C1620.79 86.4076 1620.75 86.4156 1620.7 86.4263C1620.59 86.4476 1620.43 86.4777 1620.22 86.5103C1619.81 86.5754 1619.21 86.6516 1618.49 86.6938C1617.12 86.7733 1615.32 86.732 1613.42 86.2827L1613.04 86.188C1610.09 85.4083 1607.68 84.0329 1606.08 82.0151C1604.49 80.0055 1603.67 77.3079 1604 73.7964C1604.33 70.2714 1605.77 67.9399 1607.18 66.3853C1607.88 65.6047 1608.58 65.0165 1609.14 64.5659C1609.42 64.3455 1609.67 64.1446 1609.87 63.979C1609.97 63.8948 1610.06 63.8104 1610.14 63.728C1610.21 63.6499 1610.3 63.5502 1610.36 63.4341C1610.6 62.9576 1611.8 59.8355 1614.05 56.1714C1616.3 52.5169 1619.52 48.444 1623.7 46.1763C1627.86 43.9186 1632.51 43.8568 1636.17 44.3794C1637.99 44.64 1639.55 45.0447 1640.66 45.3833C1641.21 45.5525 1641.64 45.7053 1641.94 45.8149C1642.09 45.8697 1642.2 45.9138 1642.28 45.9438C1642.32 45.9588 1642.35 45.9705 1642.36 45.978C1642.37 45.9817 1642.38 45.9841 1642.38 45.9858C1642.39 45.9866 1642.39 45.9874 1642.39 45.9878H1642.39L1642.83 46.1724L1643.03 45.7466L1642.58 45.5278C1643.03 45.745 1643.03 45.7466 1643.03 45.7466V45.7456L1643.03 45.7437C1643.04 45.7415 1643.04 45.7375 1643.04 45.7329L1643.14 45.5259C1643.22 45.3797 1643.33 45.1629 1643.47 44.8843C1643.76 44.3269 1644.19 43.5204 1644.74 42.5269C1645.86 40.5394 1647.48 37.8057 1649.52 34.8218C1653.6 28.8405 1659.31 21.9072 1665.89 17.9321Z" fill="#DFDFDF" stroke="#237F61"/>
<path d="M1650.96 48.4247C1649.02 46.4199 1652.4 39.3258 1660.05 31.1632C1667.71 23.0007 1672.98 20.412 1675.56 22.2736C1678.15 24.1353 1674.43 32.0996 1667.08 39.8546C1661 46.2657 1654.16 51.7294 1650.96 48.4247Z" fill="#FFB0B1"/>
<path d="M1626.5 48.0061C1629.36 48.623 1626.89 52.8089 1624.48 56.8406C1622.08 60.8723 1620.3 62.9653 1620.84 64.904C1621.38 66.8428 1625.56 70.5661 1625.33 74.9833C1625.1 79.4006 1621.38 84.4458 1614.41 83.895C1607.43 83.3442 1604.63 78.0016 1605.8 72.1854C1606.73 67.5808 1611.46 65.4438 1612.7 63.1856C1613.94 60.9384 1615.99 57.1601 1618.13 54.0316C1621.16 49.6364 1623.63 47.3892 1626.5 48.0061Z" fill="white"/>
<path d="M1640.36 65.1651C1640.64 62.2892 1639.16 59.79 1637.05 59.5832C1634.95 59.3763 1633.01 61.5401 1632.73 64.416C1632.45 67.292 1633.93 69.7911 1636.03 69.998C1638.14 70.2048 1640.08 68.0411 1640.36 65.1651Z" fill="#2F3030"/>
<path d="M1612.14 69.6628C1612.14 69.6628 1615.59 66.8208 1616.94 68.2198C1618.28 69.6187 1612.85 72.9785 1612.85 72.9785C1612.85 72.9785 1612.33 75.5121 1613.89 75.7655C1615.44 76.0188 1615.65 72.7141 1617.35 73.5954C1619.05 74.4766 1617.5 78.8719 1614.5 78.9159C1612.72 78.949 1611.66 77.6271 1611.66 77.6271C1611.66 77.6271 1611.19 78.6075 1609.59 78.4533C1606.96 78.1999 1605.71 72.8573 1607.67 72.9234C1609.23 72.9785 1608.29 75.457 1609.75 75.457C1611.4 75.457 1610.73 72.5158 1610.73 72.5158C1610.73 72.5158 1607.11 68.7375 1608.71 67.3936C1610.33 66.0497 1612.14 69.6628 1612.14 69.6628Z" fill="#2F3030"/>
<path d="M1636.27 76.2942C1636.14 76.2942 1636.02 76.2722 1635.89 76.2281C1635.84 76.2171 1631.9 74.752 1629.36 74.2012L1623.37 72.9124C1622.78 72.7802 1622.4 72.1964 1622.52 71.6015C1622.64 71.0067 1623.24 70.6322 1623.83 70.7533L1629.83 72.0422C1632.51 72.626 1636.48 74.0911 1636.65 74.1572C1637.22 74.3665 1637.51 75.0054 1637.3 75.5782C1637.22 75.789 1637.08 75.9712 1636.9 76.0995C1636.71 76.2278 1636.5 76.2958 1636.27 76.2942ZM1635.03 83.6416C1634.83 83.6416 1634.63 83.5865 1634.44 83.4764C1634.41 83.4543 1631.02 81.3504 1627.88 79.6319C1625.92 78.5614 1623.9 77.5979 1621.84 76.7458C1621.71 76.6916 1621.59 76.6115 1621.48 76.5102C1621.38 76.4089 1621.3 76.2883 1621.24 76.1553C1621.19 76.0223 1621.16 75.8796 1621.15 75.7352C1621.15 75.5908 1621.18 75.4476 1621.23 75.3138C1621.29 75.18 1621.37 75.0582 1621.47 74.9553C1621.57 74.8524 1621.69 74.7705 1621.83 74.7143C1621.96 74.658 1622.1 74.6285 1622.25 74.6274C1622.39 74.6263 1622.53 74.6537 1622.67 74.7079C1622.79 74.752 1625.71 75.9417 1628.93 77.7152C1632.13 79.4667 1635.57 81.6037 1635.6 81.6258C1636.12 81.9452 1636.27 82.6282 1635.95 83.1459C1635.76 83.4543 1635.4 83.6416 1635.03 83.6416Z" fill="#8E9395"/>
<path d="M672.25 78.9219C672.25 77.2506 670.937 75.9375 669.266 75.9375C667.594 75.9375 666.281 77.2506 666.281 78.9219L666.281 85.8456C666.285 87.111 666.484 88.3167 666.878 89.4627L664.67 89.0688C663.452 88.8702 662.345 88.2446 661.546 87.3041C660.748 86.3635 660.311 85.1694 660.313 83.9356L660.313 78.9219C660.313 77.2506 658.999 75.9375 657.328 75.9375C655.657 75.9375 654.344 77.2506 654.344 78.9219L654.344 83.9356C654.344 89.4269 658.223 94.0228 663.655 94.9778L668.669 95.8134C668.848 95.8731 669.027 95.8731 669.206 95.8731C669.937 95.8717 670.642 95.602 671.188 95.1151C672.394 95.9374 673.748 96.5191 675.175 96.8281C675.473 95.7538 676.07 94.7391 676.906 93.8438C677.622 93.0081 678.338 92.2322 679.114 91.4562L676.607 90.9788C675.39 90.7802 674.282 90.1546 673.484 89.2141C672.686 88.2735 672.248 87.0794 672.25 85.8456L672.25 78.9219Z" fill="#7D4533"/>
<path d="M594.656 175.675L594.656 211.906C594.656 212.801 594.835 213.637 595.253 214.412L603.962 237.094L590.8 237.094L578.541 215.726C577.407 213.816 576.69 212.144 576.69 210.115L576.69 175.675L594.656 175.675ZM611.709 237.094L623.921 237.094L627.843 222.948C627.967 222.474 628.183 222.03 628.481 221.64C628.778 221.251 629.149 220.924 629.573 220.68C633.393 218.471 636.199 214.83 637.333 210.592L642.406 189.403L624.56 189.403L611.709 237.094Z" fill="#D3883E"/>
<path d="M680.01 100.133L647.182 100.133C645.201 100.133 644.001 102.422 645.144 104.062C646.682 106.263 648.729 108.06 651.109 109.3C653.49 110.541 656.135 111.19 658.82 111.19L661.992 111.19L661.587 111.93L651.738 129.896C649.861 133.575 646.055 135.946 641.929 135.946L576.25 135.946L576.25 118.231C570.19 118.495 565.313 123.534 565.313 129.656L565.313 138.332L565.046 138.472C561.523 140.331 558.574 143.116 556.518 146.527C554.461 149.938 553.375 153.846 553.375 157.829L553.375 180.927C553.375 182.55 552.727 184.111 551.617 185.22L544.037 192.801C542.445 194.393 541.557 196.424 541.498 198.57L541.497 199.001L541.497 235.064C541.497 235.803 542.109 236.415 542.848 236.415L551.024 236.415C551.763 236.415 552.375 235.803 552.375 235.064L552.375 215.009C552.375 213.677 553.034 212.374 554.209 211.728L578.728 194.189C580.909 192.609 582.687 190.536 583.916 188.138C585.145 185.74 585.791 183.084 585.8 180.389L585.802 179.877L586.313 179.891L617.93 180.745L618.004 180.747L618.073 180.769L642.563 188.869L642.906 188.982L642.906 206.295C642.906 210.577 644.643 214.688 647.654 217.7L647.662 217.708L647.669 217.715C648.395 218.508 648.875 219.519 648.875 220.679L648.875 235.124C648.875 235.862 649.487 236.474 650.226 236.474L658.462 236.474C659.2 236.474 659.813 235.862 659.813 235.124L659.813 188.665L661.864 188.665C669.26 188.665 676.182 185.8 681.162 181.11L677.139 151.959L677.109 151.75L677.238 151.584L689.82 135.319L689.971 135.125L698.751 135.125C703.6 135.125 707.563 131.059 707.563 126.194C707.562 124.66 706.962 123.174 705.858 122.011L686.759 102.912C685.003 101.156 682.563 100.134 680.01 100.133Z" fill="#F3AD61" stroke="#237F61"/>
<path d="M648.375 241.212L648.375 231.125L660.312 231.125L660.313 241.212C660.313 242.227 659.477 243.063 658.462 243.063L650.225 243.063C649.211 243.063 648.375 242.227 648.375 241.212ZM620.382 243.003C621.396 243.003 622.411 242.704 622.65 241.69L625.574 231.125L613.279 231.125L610.712 240.794C610.414 241.749 610.832 243.063 612.025 243.063L620.382 243.003ZM605.281 240.377L601.699 231.125L587.434 231.125L592.985 240.794C594.059 242.227 595.671 243.063 597.462 243.063L603.609 243.063C604.982 243.063 605.878 241.63 605.281 240.377ZM540.938 231.125L540.938 241.212C540.938 242.227 541.773 243.063 542.847 243.063L551.025 243.063C552.039 243.063 552.875 242.227 552.875 241.212L552.875 231.125L540.938 231.125Z" fill="#6D4534"/>
<path d="M684.188 120.703C684.188 121.495 684.502 122.254 685.062 122.813C685.621 123.373 686.38 123.688 687.172 123.688C687.963 123.688 688.722 123.373 689.282 122.813C689.842 122.254 690.156 121.495 690.156 120.703C690.156 119.912 689.842 119.153 689.282 118.593C688.722 118.033 687.963 117.719 687.172 117.719C686.38 117.719 685.621 118.033 685.062 118.593C684.502 119.153 684.188 119.912 684.188 120.703ZM701.736 129.656L707.466 129.656C707.824 128.642 708.063 127.507 708.063 126.314C708.063 125.359 707.883 124.523 707.466 123.688L701.974 123.688C698.154 123.688 697.916 129.418 701.736 129.656Z" fill="#212121"/>
<path d="M588.448 177.906C587.512 177.906 586.8 178.596 586.8 179.495L586.8 179.555C586.8 179.945 586.977 180.367 587.271 180.713C589.71 183.27 592.639 185.31 595.886 186.707C599.137 188.106 602.638 188.833 606.178 188.844L641.906 188.844L641.906 177.906L588.448 177.906ZM689.656 161.051L689.715 136.125L672.75 136.125L672.75 165.528C672.75 172.01 676.26 177.655 681.537 180.721C684.063 178.176 686.078 175.17 687.469 171.863C688.908 168.44 689.652 164.765 689.656 161.052L689.656 161.051Z" fill="#FFDEA7" stroke="#237F61"/>
<path d="M639.422 76.5569C638.027 76.5569 636.938 77.6462 636.938 79.0413L636.938 82.1448C636.938 86.532 640.019 90.2831 644.28 91.1829L644.696 91.261L644.697 91.261L669.166 95.3196C671.268 95.6586 672.75 97.4874 672.75 99.5735L672.75 105.781C672.75 107.176 673.84 108.266 675.235 108.266C676.63 108.266 677.719 107.176 677.719 105.781L677.719 99.8127C677.719 97.5558 679.277 95.6236 681.36 95.0237L681.563 94.969L681.572 94.967L685.034 94.1917L685.038 94.1907L685.46 94.0911C689.765 92.9816 692.701 89.1787 692.82 84.72C692.765 83.45 691.683 82.4065 690.335 82.4065C688.94 82.4065 687.851 83.4958 687.851 84.8909L687.837 84.8909C687.765 85.8861 687.395 86.8396 686.771 87.6252C686.116 88.4496 685.217 89.0436 684.206 89.3245L684.002 89.3762L683.998 89.3772L680.537 90.1536L680.528 90.1555C678.607 90.551 676.902 91.5707 675.588 92.884L675.243 93.2297L674.889 92.8918C673.666 91.7221 672.098 90.855 670.326 90.5188L669.969 90.4592L669.959 90.4573L645.488 86.3987L645.489 86.3977C643.388 86.058 641.907 84.2305 641.907 82.1448L641.907 79.0413C641.907 77.6463 640.817 76.5571 639.422 76.5569Z" fill="#6D4534" stroke="#237F61"/>
</svg>
