<svg width="1920" height="360" viewBox="0 0 1920 360" fill="none" xmlns="http://www.w3.org/2000/svg">
<path d="M0 78.5708C0 78.5708 98 -9.96773 352 50.7159C716 137.68 1182.5 160.611 1421 40.1046C1659.5 -80.4021 1920 109.078 1920 109.078V326.611C1920 326.611 1349.5 185.637 921.5 285.216C493.5 384.795 0 326.611 0 326.611V78.5708Z" fill="#237F61"/>
<path d="M0 84.5708C0 84.5708 98 -3.96773 352 56.7159C716 143.68 1182.5 166.611 1421 46.1046C1659.5 -74.4021 1920 115.078 1920 115.078V332.611C1920 332.611 1349.5 191.637 921.5 291.216C493.5 390.795 0 332.611 0 332.611V84.5708Z" fill="#FFD685"/>
<path d="M0 94.3549C0 94.3549 98 5.81633 352 66.5C716 153.464 1182.5 176.395 1421 55.8887C1659.5 -64.6181 1920 124.862 1920 124.862V342.395C1920 342.395 1349.5 201.421 921.5 301C493.5 400.579 0 342.395 0 342.395V94.3549Z" fill="#FFF9C5"/>
<path d="M1676 46.3228C1676 58.1969 1680.23 61.8228 1643.5 61.8228C1606.77 61.8228 1543 58.1969 1543 46.3228C1543 34.4486 1572.77 24.8228 1609.5 24.8228C1646.23 24.8228 1676 34.4486 1676 46.3228Z" fill="#FFD685"/>
<path d="M119.148 100.5C119.148 112.374 114.921 116 151.648 116C188.375 116 252.148 112.374 252.148 100.5C252.148 88.6259 222.375 79 185.648 79C148.921 79 119.148 88.6259 119.148 100.5Z" fill="#FFD685"/>
<path d="M1521 156C1521 162.075 1504.29 163.5 1488 163.5C1471.71 163.5 1462 162.075 1462 156C1462 149.925 1465.71 144 1482 144C1498.29 144 1521 149.925 1521 156Z" fill="#FFD685"/>
<path d="M898 184C898 190.075 881.292 191.5 865 191.5C848.708 191.5 839 190.075 839 184C839 177.925 842.708 172 859 172C875.292 172 898 177.925 898 184Z" fill="#FFD685"/>
<path d="M739.5 236.5C739.5 242.575 722.792 244 706.5 244C690.208 244 680.5 242.575 680.5 236.5C680.5 230.425 723.208 216.5 739.5 216.5C755.792 216.5 739.5 230.425 739.5 236.5Z" fill="#FFD685"/>
<path d="M79.241 175C79.241 181.075 95.9486 182.5 112.241 182.5C128.533 182.5 138.241 181.075 138.241 175C138.241 168.925 95.5334 155 79.241 155C62.9486 155 79.241 168.925 79.241 175Z" fill="#FFD685"/>
<path d="M291 128C291 134.075 274.292 135.5 258 135.5C241.708 135.5 232 134.075 232 128C232 121.925 235.708 116 252 116C268.292 116 291 121.925 291 128Z" fill="#FFD685"/>
<path d="M245 147C245 153.075 228.292 154.5 212 154.5C195.708 154.5 186 153.075 186 147C186 140.925 189.708 135 206 135C222.292 135 245 140.925 245 147Z" fill="#FFD685"/>
</svg>
