<svg width="1920" height="210" viewBox="0 0 1920 210" fill="none" xmlns="http://www.w3.org/2000/svg">
<path d="M0 41.5C0 41.5 193.049 92.8267 330.5 99C577.754 110.105 747.842 0 968 0C1188.16 0 1325.74 89.2597 1538 99C1697.75 106.331 1920 29.5 1920 29.5V169C1920 169 1689.7 145.283 1542.5 169.5C1296.81 209.921 1132.59 158.906 968 159C794.622 159.099 620.84 207.992 351 159C224.008 135.943 0 169 0 169V41.5Z" fill="#237F61"/>
<path d="M0 47.5C0 47.5 193.049 98.8267 330.5 105C577.754 116.105 747.842 6 968 6C1188.16 6 1325.74 95.2597 1538 105C1697.75 112.331 1920 35.5 1920 35.5V175C1920 175 1689.7 151.283 1542.5 175.5C1296.81 215.921 1132.59 164.906 968 165C794.622 165.099 620.84 213.992 351 165C224.008 141.943 0 175 0 175V47.5Z" fill="#FFD685"/>
<path d="M0 65.5C0 65.5 193.049 116.827 330.5 123C577.754 134.105 747.842 24 968 24C1188.16 24 1325.74 113.26 1538 123C1697.75 130.331 1920 53.5 1920 53.5V193C1920 193 1689.7 169.283 1542.5 193.5C1296.81 233.921 1132.59 182.906 968 183C794.622 183.099 620.84 231.992 351 183C224.008 159.943 0 193 0 193V65.5Z" fill="#FFF9C5"/>
<path d="M925.021 44.0548C927.384 49.6514 912.547 57.4635 897.538 63.8014C882.529 70.1393 873.031 72.6031 870.668 67.0064C868.305 61.4098 869.416 54.5094 884.425 48.1714C899.434 41.8335 922.658 38.4582 925.021 44.0548Z" fill="#FFD685"/>
<path d="M1528.11 177.494C1529.63 183.377 1513.8 188.926 1498.03 192.991C1482.25 197.057 1472.49 198.1 1470.98 192.217C1469.46 186.334 1448.02 172.013 1463.79 167.947C1479.57 163.882 1526.59 171.611 1528.11 177.494Z" fill="#FFD685"/>
<path d="M67.6407 112.054C66.0758 121.6 39.4556 119.535 13.8547 115.338C-11.7461 111.142 -26.633 106.402 -25.0681 96.856C-23.5032 87.3099 -16.1512 78.955 9.44967 83.1517C35.0505 87.3485 69.2056 102.508 67.6407 112.054Z" fill="#FFD685"/>
<path d="M1834.93 138.333L1831.12 134.902L1856.85 106.309L1856.58 99.0593L1860.09 98.8744L1860.47 106.118L1867.71 105.737L1867.9 109.358L1860.66 109.74L1834.93 138.333ZM1857.42 117.174L1860.85 113.362C1864.17 113.753 1867.2 115.423 1869.31 118.015C1871.41 120.608 1872.42 123.919 1872.12 127.245C1871.83 130.571 1870.24 133.65 1867.71 135.827C1865.18 138.004 1861.9 139.108 1858.56 138.905L1855.13 142.717C1851.34 146.93 1844.86 147.271 1840.65 143.48C1839.25 142.228 1838.28 140.699 1837.76 139.019L1841.19 135.207C1841.72 136.886 1842.69 138.415 1844.08 139.667C1846.17 141.555 1849.43 141.383 1851.32 139.286L1856.76 133.243C1859.69 134.469 1863.18 133.777 1865.43 131.28C1868.26 128.134 1868.04 123.279 1864.85 120.414C1862.72 118.493 1860.1 117.414 1857.42 117.174ZM1849.8 110.312C1849.28 107.67 1847.95 105.197 1845.79 103.259C1842.61 100.394 1837.76 100.686 1834.93 103.831C1832.68 106.328 1832.38 109.885 1833.88 112.657L1828.45 118.699C1826.56 120.796 1826.73 124.056 1828.83 125.943C1830.22 127.195 1831.84 128 1833.57 128.345L1830.14 132.157C1828.41 131.812 1826.79 131.008 1825.4 129.755C1821.18 125.964 1820.84 119.481 1824.63 115.268L1828.06 111.456C1827.51 108.163 1828.27 104.784 1830.17 102.037C1832.06 99.2905 1834.96 97.3929 1838.24 96.7475C1841.51 96.1021 1844.91 96.7598 1847.71 98.5807C1850.51 100.402 1852.49 103.242 1853.23 106.499L1849.8 110.312ZM1844.46 112.409L1844.17 106.976L1838.74 107.262L1839.03 112.695L1844.46 112.409ZM1861.61 127.849L1861.33 122.416L1855.9 122.702L1856.18 128.135L1861.61 127.849Z" fill="#2EAC3F"/>
</svg>
