<svg width="1920" height="344" viewBox="0 0 1920 344" fill="none" xmlns="http://www.w3.org/2000/svg">
<rect width="1920" height="235" fill="#237F61"/>
<path d="M547 61.9488C859.5 -27.46 1171 -3.40383 1432 77.4488C1628.48 122.324 1919.95 31.3331 1920 31.319V266.423C1914.78 265.243 1909.24 264.607 1903.5 264.607C1883.9 264.607 1866.63 272.011 1856.5 283.253C1846.37 272.011 1829.1 264.607 1809.5 264.607C1789.9 264.607 1772.63 272.011 1762.5 283.253C1752.37 272.011 1735.1 264.607 1715.5 264.607C1695.9 264.607 1678.63 272.011 1668.5 283.253C1658.37 272.011 1641.1 264.607 1621.5 264.607C1601.9 264.607 1584.63 272.011 1574.5 283.253C1564.37 272.011 1547.1 264.607 1527.5 264.607C1507.9 264.607 1490.63 272.011 1480.5 283.253C1470.37 272.011 1453.1 264.607 1433.5 264.607C1413.9 264.607 1396.63 272.011 1386.5 283.253C1376.37 272.011 1359.1 264.607 1339.5 264.607C1319.9 264.607 1302.63 272.011 1292.5 283.253C1282.37 272.011 1265.1 264.607 1245.5 264.607C1225.9 264.607 1208.63 272.011 1198.5 283.253C1188.37 272.011 1171.1 264.607 1151.5 264.607C1131.9 264.607 1114.63 272.011 1104.5 283.253C1094.37 272.011 1077.1 264.607 1057.5 264.607C1037.9 264.607 1020.63 272.011 1010.5 283.253C1000.37 272.011 983.099 264.607 963.5 264.607C943.901 264.607 926.633 272.011 916.5 283.253C906.367 272.011 889.099 264.607 869.5 264.607C849.901 264.607 832.633 272.011 822.5 283.253C812.367 272.011 795.099 264.607 775.5 264.607C755.901 264.607 738.633 272.011 728.5 283.253C718.367 272.011 701.099 264.607 681.5 264.607C661.901 264.607 644.633 272.011 634.5 283.253C624.367 272.011 607.099 264.607 587.5 264.607C567.901 264.607 550.633 272.011 540.5 283.253C530.367 272.011 513.099 264.607 493.5 264.607C473.901 264.607 456.633 272.011 446.5 283.253C436.367 272.011 419.099 264.607 399.5 264.607C379.901 264.607 362.633 272.011 352.5 283.253C342.367 272.011 325.099 264.607 305.5 264.607C285.901 264.607 268.633 272.011 258.5 283.253C248.367 272.011 231.099 264.607 211.5 264.607C191.901 264.607 174.633 272.011 164.5 283.253C154.367 272.011 137.099 264.607 117.5 264.607C97.9006 264.607 80.6335 272.011 70.5 283.253C60.3665 272.011 43.0994 264.607 23.5 264.607C15.1145 264.607 7.15595 265.963 0 268.394V31.319C185.5 31.319 234.5 151.358 547 61.9488Z" fill="#E9DFA5"/>
<path d="M547 83.7731C859.5 -21.0593 1171 7.14671 1432 101.947C1628.44 154.55 1919.81 47.9281 1920 47.859V322.237C1916.6 321.681 1913.09 321.39 1909.5 321.39C1889.9 321.39 1872.63 330.069 1862.5 343.25C1852.37 330.069 1835.1 321.39 1815.5 321.39C1795.9 321.39 1778.63 330.069 1768.5 343.25C1758.37 330.069 1741.1 321.39 1721.5 321.39C1701.9 321.39 1684.63 330.069 1674.5 343.25C1664.37 330.069 1647.1 321.39 1627.5 321.39C1607.9 321.39 1590.63 330.069 1580.5 343.25C1570.37 330.069 1553.1 321.39 1533.5 321.39C1513.9 321.39 1496.63 330.069 1486.5 343.25C1476.37 330.069 1459.1 321.39 1439.5 321.39C1419.9 321.39 1402.63 330.069 1392.5 343.25C1382.37 330.069 1365.1 321.39 1345.5 321.39C1325.9 321.39 1308.63 330.069 1298.5 343.25C1288.37 330.069 1271.1 321.39 1251.5 321.39C1231.9 321.39 1214.63 330.069 1204.5 343.25C1194.37 330.069 1177.1 321.39 1157.5 321.39C1137.9 321.39 1120.63 330.069 1110.5 343.25C1100.37 330.069 1083.1 321.39 1063.5 321.39C1043.9 321.39 1026.63 330.069 1016.5 343.25C1006.37 330.069 989.099 321.39 969.5 321.39C949.901 321.39 932.634 330.069 922.5 343.25C912.366 330.069 895.099 321.39 875.5 321.39C855.901 321.39 838.634 330.069 828.5 343.25C818.366 330.069 801.099 321.39 781.5 321.39C761.901 321.39 744.634 330.069 734.5 343.25C724.366 330.069 707.099 321.39 687.5 321.39C667.901 321.39 650.634 330.069 640.5 343.25C630.366 330.069 613.099 321.39 593.5 321.39C573.901 321.39 556.634 330.069 546.5 343.25C536.366 330.069 519.099 321.39 499.5 321.39C479.901 321.39 462.634 330.069 452.5 343.25C442.366 330.069 425.099 321.39 405.5 321.39C385.901 321.39 368.634 330.069 358.5 343.25C348.366 330.069 331.099 321.39 311.5 321.39C291.901 321.39 274.634 330.069 264.5 343.25C254.366 330.069 237.099 321.39 217.5 321.39C197.901 321.39 180.634 330.069 170.5 343.25C160.366 330.069 143.099 321.39 123.5 321.39C103.901 321.39 86.6336 330.069 76.5 343.25C66.3664 330.069 49.0988 321.39 29.5 321.39C18.6883 321.39 8.58669 324.033 0 328.614V47.859C185.5 47.859 234.5 188.605 547 83.7731Z" fill="#FFFDF6"/>
</svg>
