<svg width="1920" height="210" viewBox="0 0 1920 210" fill="none" xmlns="http://www.w3.org/2000/svg">
<path d="M0 41.5C0 41.5 193.049 92.8267 330.5 99C577.754 110.105 747.842 0 968 0C1188.16 0 1325.74 89.2597 1538 99C1697.75 106.331 1920 29.5 1920 29.5V169C1920 169 1689.7 145.283 1542.5 169.5C1296.81 209.921 1132.59 158.906 968 159C794.622 159.099 620.84 207.992 351 159C224.008 135.943 0 169 0 169V41.5Z" fill="#237F61"/>
<path d="M0 47.5C0 47.5 193.049 98.8267 330.5 105C577.754 116.105 747.842 6 968 6C1188.16 6 1325.74 95.2597 1538 105C1697.75 112.331 1920 35.5 1920 35.5V175C1920 175 1689.7 151.283 1542.5 175.5C1296.81 215.921 1132.59 164.906 968 165C794.622 165.099 620.84 213.992 351 165C224.008 141.943 0 175 0 175V47.5Z" fill="#FFD685"/>
<path d="M0 65.5C0 65.5 193.049 116.827 330.5 123C577.754 134.105 747.842 24 968 24C1188.16 24 1325.74 113.26 1538 123C1697.75 130.331 1920 53.5 1920 53.5V193C1920 193 1689.7 169.283 1542.5 193.5C1296.81 233.921 1132.59 182.906 968 183C794.622 183.099 620.84 231.992 351 183C224.008 159.943 0 193 0 193V65.5Z" fill="#FFF9C5"/>
<path d="M925.021 44.0548C927.384 49.6514 912.547 57.4635 897.538 63.8014C882.529 70.1393 873.031 72.6031 870.668 67.0064C868.305 61.4098 869.416 54.5094 884.425 48.1714C899.434 41.8335 922.658 38.4582 925.021 44.0548Z" fill="#FFD685"/>
<path d="M560.113 139.947C560.015 146.021 543.287 147.178 526.997 146.916C510.706 146.654 501.023 145.073 501.121 138.998C501.218 132.924 505.021 127.06 521.311 127.322C537.601 127.584 560.211 133.873 560.113 139.947Z" fill="#FFD685"/>
<path d="M509.865 162.873C509.7 173.135 481.439 175.087 453.918 174.645C426.398 174.202 410.039 171.532 410.204 161.27C410.369 151.008 447.48 151.057 475 151.5C502.521 151.943 510.03 152.611 509.865 162.873Z" fill="#FFD685"/>
<path d="M1528.11 177.494C1529.63 183.377 1513.8 188.926 1498.03 192.991C1482.25 197.057 1472.49 198.1 1470.98 192.217C1469.46 186.334 1448.02 172.013 1463.79 167.947C1479.57 163.882 1526.59 171.611 1528.11 177.494Z" fill="#FFD685"/>
<path d="M67.6407 112.054C66.0758 121.6 39.4556 119.535 13.8547 115.338C-11.7461 111.142 -26.633 106.402 -25.0681 96.856C-23.5032 87.3099 -16.1512 78.955 9.44967 83.1517C35.0505 87.3485 69.2056 102.508 67.6407 112.054Z" fill="#FFD685"/>
<path d="M1107.61 47.5807C1108.72 41.8539 1112.08 30.6224 1123.8 37.6458C1124.04 42.1879 1119.06 49.8005 1107.61 47.5807Z" stroke="#237F61" stroke-width="2" stroke-linecap="round" stroke-linejoin="round"/>
<path d="M1151.13 56.0162C1152.24 50.2896 1153.32 38.6139 1139.83 40.7535C1137.91 44.8758 1139.68 53.7962 1151.13 56.0162Z" stroke="#237F61" stroke-width="2" stroke-linecap="round" stroke-linejoin="round"/>
<path d="M1135.13 58.8573L1121.39 56.1935C1115.06 54.9675 1108.94 59.1016 1107.71 65.4272C1106.49 71.7528 1110.62 77.8746 1116.95 79.1005L1130.69 81.7643C1137.02 82.9903 1143.14 78.8563 1144.37 72.5307C1145.59 66.205 1141.46 60.0833 1135.13 58.8573Z" fill="#F2A9A8" stroke="#237F61" stroke-width="2" stroke-linecap="round" stroke-linejoin="round"/>
<path d="M1131.7 58.1913L1132.58 53.6099" stroke="#237F61" stroke-width="2" stroke-linecap="round" stroke-linejoin="round"/>
<path d="M1124.82 56.8595L1125.71 52.2781" stroke="#237F61" stroke-width="2" stroke-linecap="round" stroke-linejoin="round"/>
<path d="M1151.13 56.0163C1151.61 59.6743 1150.28 66.5465 1145.03 69.0946" stroke="#237F61" stroke-width="2" stroke-linecap="round" stroke-linejoin="round"/>
<path d="M1107.61 47.581C1105.8 50.7951 1105.83 56.7439 1108.38 61.9912" stroke="#237F61" stroke-width="2" stroke-linecap="round" stroke-linejoin="round"/>
<path d="M1130.69 81.7645L1146.73 84.8723L1144.14 73.6761" stroke="#237F61" stroke-width="2" stroke-linecap="round" stroke-linejoin="round"/>
<path d="M1116.95 79.1005L1100.91 75.9927L1107.49 66.5725" stroke="#237F61" stroke-width="2" stroke-linecap="round" stroke-linejoin="round"/>
<path d="M1017.31 70.5505C1016.87 64.7337 1017.16 53.0123 1030.3 56.7004C1031.74 61.0178 1028.94 69.673 1017.31 70.5505Z" stroke="#237F61" stroke-width="2" stroke-linecap="round" stroke-linejoin="round"/>
<path d="M1061.52 67.2157C1061.08 61.3988 1059.04 49.853 1046.59 55.4718C1045.82 59.9551 1049.88 68.0933 1061.52 67.2157Z" stroke="#237F61" stroke-width="2" stroke-linecap="round" stroke-linejoin="round"/>
<path d="M1046.83 74.1736L1032.87 75.2267C1026.45 75.7113 1021.63 81.3128 1022.12 87.7379C1022.6 94.1629 1028.2 98.9786 1034.63 98.4939L1048.59 97.4408C1055.01 96.9562 1059.83 91.3547 1059.34 84.9297C1058.86 78.5046 1053.26 73.6889 1046.83 74.1736Z" fill="#F2A9A8" stroke="#237F61" stroke-width="2" stroke-linecap="round" stroke-linejoin="round"/>
<path d="M1043.34 74.4369L1042.99 69.7834" stroke="#237F61" stroke-width="2" stroke-linecap="round" stroke-linejoin="round"/>
<path d="M1036.36 74.9633L1036.01 70.3098" stroke="#237F61" stroke-width="2" stroke-linecap="round" stroke-linejoin="round"/>
<path d="M1061.52 67.216C1062.94 70.6183 1063.47 77.5985 1059.08 81.4396" stroke="#237F61" stroke-width="2" stroke-linecap="round" stroke-linejoin="round"/>
<path d="M1017.31 70.5506C1016.41 74.1284 1018.01 79.8575 1021.85 84.2477" stroke="#237F61" stroke-width="2" stroke-linecap="round" stroke-linejoin="round"/>
<path d="M1048.59 97.4407L1064.87 96.2121L1059.43 86.0929" stroke="#237F61" stroke-width="2" stroke-linecap="round" stroke-linejoin="round"/>
<path d="M1034.63 98.4939L1018.34 99.7224L1022.2 88.9012" stroke="#237F61" stroke-width="2" stroke-linecap="round" stroke-linejoin="round"/>
<path d="M1793.17 110.097C1794.2 109.274 1795.44 108.75 1796.74 108.582C1798.05 108.414 1799.38 108.608 1800.58 109.144L1801.06 109.361L1801.25 108.863C1801.78 107.44 1802.75 106.222 1804.02 105.385C1805.29 104.549 1806.8 104.137 1808.31 104.209C1809.83 104.281 1811.29 104.834 1812.47 105.787C1813.66 106.739 1814.51 108.044 1814.9 109.512L1814.98 109.8L1815.27 109.869C1815.77 109.986 1816.26 110.116 1816.75 110.258L1817.23 110.404C1819.67 111.16 1820.79 113.782 1820.03 116.304L1819.95 116.548L1816.9 125.237L1802.74 136.571L1793.59 137.637C1790.94 137.946 1788.55 136.366 1788.22 133.88L1788.19 133.637C1788.14 132.961 1788.11 132.284 1788.1 131.606L1788.1 131.308L1787.83 131.169C1786.49 130.461 1785.4 129.344 1784.73 127.98C1784.06 126.615 1783.84 125.073 1784.11 123.575C1784.37 122.078 1785.1 120.703 1786.19 119.648C1787.29 118.594 1788.69 117.913 1790.2 117.706L1790.72 117.634L1790.62 117.112C1790.36 115.821 1790.46 114.484 1790.91 113.246C1791.36 112.009 1792.14 110.919 1793.17 110.097Z" fill="#8FBFFA" stroke="#237F61"/>
<path d="M1819.25 127.937L1817.33 125.538L1802.94 137.051L1804.86 139.449C1805.36 140.085 1806.1 140.493 1806.91 140.583C1807.72 140.673 1808.54 140.438 1809.17 139.929L1818.77 132.254C1819.4 131.745 1819.81 131.004 1819.9 130.195C1819.99 129.385 1819.75 128.573 1819.25 127.937ZM1788.14 117.766C1789.17 117.323 1789.92 116.272 1790 115.153C1790.02 114.945 1790.04 114.737 1790.07 114.53C1790.27 114.598 1790.45 114.7 1790.62 114.835L1798.41 121.008C1798.79 121.328 1799.04 121.787 1799.09 122.287C1799.15 122.787 1799 123.288 1798.69 123.682C1798.38 124.076 1797.92 124.332 1797.42 124.394C1796.93 124.457 1796.42 124.322 1796.02 124.017L1788.23 117.839L1788.14 117.766ZM1787.92 134.789C1787.8 134.437 1787.72 134.066 1787.69 133.677C1787.67 133.388 1787.65 133.092 1787.64 132.787C1787.61 132.43 1787.5 132.084 1787.32 131.773C1787.14 131.462 1786.9 131.193 1786.61 130.986L1798.29 130.63C1798.54 130.622 1798.79 130.664 1799.03 130.753C1799.26 130.842 1799.48 130.977 1799.66 131.149C1799.85 131.322 1799.99 131.529 1800.1 131.759C1800.2 131.989 1800.26 132.236 1800.27 132.488C1800.27 132.74 1800.23 132.991 1800.14 133.227C1800.05 133.463 1799.92 133.679 1799.75 133.863C1799.57 134.046 1799.37 134.194 1799.14 134.298C1798.91 134.402 1798.66 134.459 1798.41 134.467L1787.92 134.789ZM1815 108.285C1815.13 108.614 1815.34 108.909 1815.6 109.149C1815.87 109.389 1816.18 109.568 1816.52 109.674C1816.81 109.756 1817.1 109.841 1817.38 109.927C1817.76 110.046 1818.1 110.2 1818.42 110.39L1815.81 120.545C1815.66 121.021 1815.34 121.425 1814.91 121.67C1814.48 121.915 1813.97 121.983 1813.49 121.859C1813 121.735 1812.59 121.429 1812.33 121.005C1812.07 120.581 1811.98 120.073 1812.09 119.588L1815 108.285ZM1798.19 108.044C1798.39 108.057 1798.59 108.079 1798.79 108.11C1799.91 108.278 1801.1 107.775 1801.77 106.861L1801.83 106.973L1806.14 115.924C1806.35 116.381 1806.37 116.902 1806.2 117.375C1806.03 117.848 1805.68 118.235 1805.23 118.453C1804.77 118.671 1804.25 118.703 1803.78 118.541C1803.3 118.38 1802.91 118.038 1802.68 117.589L1798.36 108.636C1798.27 108.449 1798.21 108.248 1798.19 108.041" fill="#2859C5"/>
<path d="M66.9025 110.058C67.8259 110.997 68.4736 112.172 68.7741 113.454C69.0746 114.736 69.0169 116.076 68.6067 117.328L68.441 117.833L68.955 117.967C70.4256 118.352 71.7363 119.193 72.698 120.37C73.6596 121.548 74.2231 123 74.3065 124.518C74.3899 126.036 73.9894 127.541 73.1626 128.817C72.3358 130.093 71.1249 131.073 69.7053 131.616L69.4268 131.723L69.3878 132.018C69.3215 132.522 69.2426 133.024 69.1509 133.524L69.0556 134.024C68.5525 136.524 66.0587 137.906 63.4721 137.409L63.2219 137.355L54.2665 135.211L41.5443 122.276L39.5483 113.287C38.9703 110.685 40.2986 108.149 42.7371 107.56L42.9764 107.509C43.643 107.387 44.3137 107.287 44.987 107.21L45.2829 107.176L45.3943 106.9C45.9612 105.489 46.9612 104.295 48.2503 103.489C49.5393 102.684 51.0514 102.308 52.5676 102.417C54.0836 102.525 55.5263 103.112 56.6874 104.093C57.8486 105.074 58.6685 106.399 59.0288 107.876L59.1544 108.392L59.6626 108.234C60.9205 107.845 62.2613 107.809 63.5382 108.13C64.8151 108.452 65.979 109.119 66.9025 110.058Z" fill="#8FBFFA" stroke="#237F61"/>
<path d="M51.8204 137.817L54.0101 135.664L41.0874 122.525L38.8977 124.679C38.3169 125.25 37.9869 126.029 37.9801 126.843C37.9734 127.658 38.2905 128.442 38.8617 129.023L47.4769 137.781C48.0481 138.362 48.8266 138.692 49.6412 138.699C50.4558 138.706 51.2397 138.389 51.8204 137.817ZM58.7592 105.837C59.3049 106.817 60.4268 107.454 61.5478 107.42C61.7564 107.413 61.9656 107.415 62.1754 107.427C62.1275 107.626 62.0448 107.818 61.9274 108.003L56.5826 116.379C56.3042 116.797 55.8727 117.09 55.3808 117.194C54.8889 117.298 54.3759 117.205 53.952 116.934C53.5281 116.664 53.2272 116.238 53.1139 115.748C53.0006 115.259 53.084 114.744 53.3462 114.315L58.6954 105.934L58.7592 105.837ZM41.8014 107.352C42.1401 107.2 42.5015 107.088 42.8858 107.018C43.17 106.965 43.4629 106.915 43.7645 106.868C44.1166 106.802 44.45 106.66 44.7414 106.452C45.0327 106.243 45.275 105.974 45.4512 105.662L46.9995 117.244C47.0331 117.494 47.0172 117.748 46.9526 117.992C46.888 118.236 46.776 118.464 46.6231 118.665C46.4702 118.865 46.2793 119.033 46.0613 119.16C45.8434 119.287 45.6026 119.369 45.3527 119.403C45.1029 119.436 44.8489 119.42 44.6052 119.356C44.3615 119.291 44.133 119.179 43.9325 119.026C43.7321 118.873 43.5638 118.682 43.4372 118.464C43.3105 118.246 43.228 118.006 43.1945 117.756L41.8014 107.352ZM70.9347 131.584C70.6218 131.753 70.3497 131.988 70.1379 132.274C69.9261 132.56 69.7798 132.889 69.7092 133.237C69.6574 133.541 69.6028 133.836 69.5455 134.122C69.4655 134.508 69.3474 134.868 69.1912 135.203L58.8224 133.64C58.3337 133.548 57.8996 133.271 57.6116 132.865C57.3236 132.46 57.2041 131.959 57.2782 131.467C57.3524 130.975 57.6144 130.532 58.0092 130.229C58.4039 129.927 58.9006 129.79 59.3946 129.846L70.9347 131.584ZM69.4573 114.839C69.4644 115.039 69.4627 115.24 69.4523 115.443C69.3996 116.572 70.0222 117.708 70.9992 118.277L70.8944 118.345L62.4309 123.551C61.9976 123.806 61.4816 123.881 60.9937 123.76C60.5058 123.638 60.0851 123.33 59.8218 122.902C59.5585 122.474 59.4738 121.959 59.5857 121.469C59.6977 120.979 59.9975 120.552 60.4207 120.281L68.8864 115.073C69.0627 114.963 69.2565 114.883 69.4595 114.837" fill="#2859C5"/>
<path d="M1832.16 122.84C1832.92 123.182 1833.57 123.726 1834.04 124.413C1834.51 125.099 1834.78 125.901 1834.82 126.731L1834.85 127.262L1835.38 127.202C1836.33 127.094 1837.29 127.29 1838.13 127.764C1838.96 128.238 1839.63 128.966 1840.02 129.84C1840.41 130.714 1840.52 131.692 1840.33 132.631C1840.13 133.57 1839.64 134.423 1838.93 135.066L1838.71 135.266L1838.78 135.555C1838.83 135.769 1838.88 135.984 1838.92 136.199L1839.04 136.848C1839.3 138.333 1838.27 139.656 1836.73 140.006L1836.41 140.062L1830.48 140.863L1819.74 136.008L1816.42 131.026C1815.5 129.634 1815.72 127.883 1816.98 127.01L1817.1 126.928C1817.48 126.698 1817.86 126.48 1818.25 126.275L1818.51 126.137L1818.52 125.839C1818.53 124.88 1818.85 123.948 1819.42 123.181C1820 122.413 1820.8 121.848 1821.72 121.567C1822.64 121.285 1823.62 121.302 1824.53 121.615C1825.43 121.928 1826.22 122.522 1826.76 123.309L1827.07 123.744L1827.49 123.415C1828.14 122.899 1828.92 122.573 1829.74 122.471C1830.57 122.37 1831.41 122.497 1832.16 122.84Z" fill="#FAF596" stroke="#237F61"/>
<path d="M1829.58 143.212L1830.41 141.378L1819.41 136.404L1818.58 138.238C1818.36 138.724 1818.34 139.278 1818.53 139.777C1818.72 140.277 1819.1 140.681 1819.58 140.9L1826.92 144.216C1827.4 144.436 1827.96 144.454 1828.46 144.265C1828.96 144.077 1829.36 143.698 1829.58 143.212ZM1826.26 122.028C1826.83 122.498 1827.66 122.622 1828.34 122.336C1828.46 122.283 1828.59 122.235 1828.72 122.192C1828.74 122.325 1828.74 122.462 1828.71 122.603L1827.42 128.985C1827.35 129.306 1827.16 129.587 1826.88 129.767C1826.6 129.947 1826.27 130.011 1825.95 129.946C1825.62 129.881 1825.34 129.692 1825.15 129.42C1824.97 129.147 1824.9 128.813 1824.96 128.489L1826.24 122.103L1826.26 122.028ZM1816.26 126.963C1816.43 126.79 1816.62 126.636 1816.84 126.502C1817 126.403 1817.17 126.303 1817.34 126.203C1817.54 126.08 1817.71 125.914 1817.84 125.718C1817.97 125.521 1818.05 125.299 1818.09 125.067L1821.77 131.779C1821.85 131.924 1821.9 132.083 1821.92 132.247C1821.94 132.411 1821.92 132.577 1821.88 132.736C1821.83 132.895 1821.75 133.043 1821.65 133.172C1821.55 133.3 1821.42 133.408 1821.27 133.487C1821.13 133.567 1820.97 133.617 1820.81 133.635C1820.64 133.654 1820.48 133.639 1820.32 133.593C1820.16 133.547 1820.01 133.47 1819.88 133.367C1819.75 133.264 1819.65 133.136 1819.57 132.991L1816.26 126.963ZM1839.79 134.884C1839.64 135.061 1839.52 135.269 1839.46 135.494C1839.4 135.718 1839.39 135.954 1839.43 136.184C1839.47 136.381 1839.51 136.575 1839.54 136.763C1839.58 137.018 1839.59 137.266 1839.58 137.507L1832.87 139.004C1832.55 139.063 1832.22 138.996 1831.95 138.816C1831.68 138.637 1831.48 138.359 1831.41 138.041C1831.34 137.723 1831.4 137.39 1831.57 137.112C1831.74 136.833 1832.01 136.632 1832.32 136.55L1839.79 134.884ZM1834.93 125C1834.98 125.121 1835.02 125.244 1835.07 125.37C1835.3 126.073 1835.95 126.62 1836.68 126.737L1836.63 126.803L1832.69 131.985C1832.49 132.243 1832.19 132.411 1831.86 132.452C1831.54 132.494 1831.21 132.405 1830.94 132.205C1830.68 132.006 1830.51 131.711 1830.46 131.386C1830.41 131.06 1830.5 130.728 1830.69 130.462L1834.63 125.278C1834.71 125.169 1834.81 125.074 1834.93 124.998" fill="#E5D875"/>
<path d="M1855.8 155.599C1856.02 154.302 1856.61 153.093 1857.48 152.105C1858.35 151.117 1859.47 150.386 1860.73 149.995L1861.24 149.837L1861.05 149.34C1860.51 147.919 1860.44 146.364 1860.84 144.897C1861.24 143.431 1862.1 142.13 1863.28 141.182C1864.47 140.234 1865.93 139.687 1867.45 139.621C1868.97 139.555 1870.47 139.974 1871.73 140.815L1871.98 140.98L1872.25 140.841C1872.69 140.603 1873.15 140.376 1873.61 140.16L1874.07 139.948C1876.4 138.908 1878.97 140.139 1880.07 142.535L1880.17 142.77L1883.61 151.309L1880.45 169.174L1874.29 176.013C1872.5 177.993 1869.67 178.381 1867.77 176.736L1867.59 176.57C1867.11 176.098 1866.64 175.609 1866.18 175.106L1865.98 174.884L1865.69 174.954C1864.22 175.309 1862.66 175.187 1861.26 174.604C1859.85 174.021 1858.67 173.007 1857.88 171.709C1857.09 170.411 1856.73 168.895 1856.86 167.38C1856.98 165.865 1857.59 164.429 1858.58 163.279L1858.93 162.877L1858.51 162.555C1857.46 161.756 1856.65 160.684 1856.18 159.457C1855.7 158.231 1855.57 156.895 1855.8 155.599Z" fill="#F8B2B2" stroke="#237F61"/>
<path d="M1887.16 151.791L1884.13 151.256L1880.92 169.402L1883.95 169.937C1884.75 170.079 1885.57 169.897 1886.24 169.43C1886.91 168.963 1887.36 168.25 1887.51 167.448L1889.65 155.351C1889.79 154.548 1889.61 153.723 1889.14 153.055C1888.67 152.388 1887.96 151.933 1887.16 151.791ZM1857.08 164.681C1857.56 163.668 1857.43 162.385 1856.75 161.491C1856.62 161.325 1856.5 161.153 1856.39 160.976C1856.58 160.899 1856.79 160.855 1857.01 160.844L1866.93 160.342C1867.43 160.326 1867.92 160.508 1868.29 160.848C1868.66 161.189 1868.88 161.661 1868.91 162.163C1868.93 162.665 1868.76 163.157 1868.43 163.533C1868.09 163.91 1867.63 164.14 1867.12 164.175L1857.19 164.676L1857.08 164.681ZM1868.14 177.619C1867.82 177.431 1867.52 177.201 1867.24 176.929C1867.04 176.728 1866.83 176.518 1866.61 176.299C1866.35 176.051 1866.05 175.862 1865.71 175.745C1865.37 175.629 1865.01 175.588 1864.65 175.625L1873.19 167.647C1873.37 167.475 1873.59 167.341 1873.83 167.252C1874.06 167.164 1874.31 167.122 1874.57 167.131C1874.82 167.139 1875.07 167.197 1875.3 167.301C1875.52 167.405 1875.73 167.554 1875.9 167.738C1876.08 167.922 1876.21 168.138 1876.3 168.374C1876.39 168.61 1876.43 168.861 1876.42 169.113C1876.41 169.365 1876.35 169.613 1876.25 169.842C1876.15 170.072 1876 170.279 1875.81 170.451L1868.14 177.619ZM1870.99 139.832C1871.31 139.989 1871.66 140.074 1872.02 140.081C1872.38 140.088 1872.73 140.017 1873.05 139.872C1873.33 139.738 1873.6 139.612 1873.87 139.492C1874.23 139.334 1874.59 139.221 1874.95 139.154L1879.69 148.508C1879.9 148.96 1879.93 149.474 1879.76 149.944C1879.6 150.414 1879.26 150.802 1878.82 151.026C1878.37 151.251 1877.86 151.295 1877.39 151.148C1876.91 151.002 1876.51 150.677 1876.27 150.242L1870.99 139.832ZM1858.21 150.745C1858.37 150.623 1858.53 150.508 1858.7 150.399C1859.65 149.787 1860.22 148.621 1860.12 147.495L1860.23 147.541L1869.38 151.418C1869.84 151.623 1870.2 152 1870.38 152.468C1870.57 152.936 1870.56 153.457 1870.37 153.92C1870.17 154.383 1869.8 154.75 1869.33 154.943C1868.87 155.136 1868.35 155.139 1867.88 154.952L1858.73 151.074C1858.54 150.995 1858.36 150.883 1858.21 150.744" fill="#DB4747"/>
<path d="M13.426 110.204C13.7769 109.971 14.1634 109.894 14.5472 109.974C14.9349 110.053 15.3619 110.302 15.7621 110.793L16.048 111.144L16.4255 110.894L19.6917 108.731C20.3854 108.272 21.1707 108.139 21.9482 108.359C22.6831 108.567 23.4527 109.104 24.1371 110.06L24.273 110.258L24.5498 110.674L24.9663 110.398L27.9022 108.452C28.9385 107.766 30.1348 107.605 31.3151 108.008L31.3456 108.017L31.5668 108.077C32.806 108.496 34.2517 109.604 35.7123 111.183C37.1623 112.75 38.5857 114.736 39.7877 116.837C40.99 118.939 41.9622 121.142 42.52 123.142C43.0826 125.158 43.2025 126.894 42.7927 128.108C41.0593 133.233 34.7389 135.782 29.5207 134.018C29.2366 133.922 28.9408 133.776 28.6268 133.598L28.5907 133.578L28.5519 133.563L28.3378 133.481C27.341 133.076 26.3938 132.392 25.7185 131.421L25.5775 131.208L23.1668 127.363L22.9292 126.983L22.5256 127.179L22.3183 127.262C21.8018 127.431 21.0631 127.428 20.2861 127.177C19.4664 126.913 18.6637 126.39 18.111 125.599L18.0038 125.437L15.5121 121.461L15.2961 121.117L14.9147 121.257L14.7992 121.293C14.5133 121.362 14.108 121.346 13.6794 121.194C13.2597 121.045 12.8569 120.779 12.5627 120.396L12.4429 120.225L9.50487 115.535C8.8266 114.452 8.99311 113.281 9.60481 112.748L9.73276 112.65L13.426 110.204Z" fill="#CCD6DD" stroke="#237F61"/>
<path d="M36.0006 113.019C37.6222 114.642 41.9717 121.898 41.058 126.413C40.1421 130.928 33.8848 128.54 34.1717 123.473C34.4586 118.408 34.3634 111.38 36.0006 113.019Z" fill="#66757F"/>
<path d="M24.6894 109.98C24.7261 110.036 24.7665 110.078 24.8027 110.135C26.3457 112.597 24.9076 126.24 22.9686 127.526C22.9033 127.57 22.8167 127.593 22.7427 127.63L24.6859 130.73C26.9344 127.638 28.5004 112.777 27.0382 108.425L24.6894 109.98ZM16.1501 110.476C16.2585 110.609 16.3649 110.747 16.4655 110.907C17.4165 112.423 16.5293 120.821 15.3378 121.612C15.2654 121.661 15.1772 121.693 15.0885 121.727L16.8016 124.461C18.2341 121.609 19.189 112.553 18.4364 108.962L16.1501 110.476Z" fill="#99AAB5"/>
<path d="M167.232 136.809H170.656" stroke="#BC8619" stroke-width="2" stroke-linecap="round"/>
<path d="M184.351 136.809H187.09" stroke="#BC8619" stroke-width="2" stroke-linecap="round"/>
<path d="M179.558 145.026H182.297" stroke="#BC8619" stroke-width="2" stroke-linecap="round"/>
<path d="M174.08 127.222C174.306 126.996 174.532 126.77 175.213 126.654C175.894 126.538 177.024 126.538 178.188 126.538" stroke="#BC8619" stroke-width="2" stroke-linecap="round"/>
<path d="M167.917 145.711L169.971 145.026" stroke="#BC8619" stroke-width="2" stroke-linecap="round"/>
<path d="M159.699 132.7H163.123" stroke="#BC8619" stroke-width="2" stroke-linecap="round"/>
<path d="M158.33 145.026L159.015 145.711" stroke="#BC8619" stroke-width="2" stroke-linecap="round"/>
<path d="M196.677 155.298H199.416" stroke="#BC8619" stroke-width="2" stroke-linecap="round"/>
<path d="M182.297 152.559L185.036 151.874" stroke="#BC8619" stroke-width="2" stroke-linecap="round"/>
<path d="M189.145 145.026H193.253" stroke="#BC8619" stroke-width="2" stroke-linecap="round"/>
<path d="M823.311 68.9445C823.311 68.574 823.311 68.2035 824.608 68.0126C825.905 67.8218 828.498 67.8218 831.17 67.8218" stroke="#BC8619" stroke-width="2" stroke-linecap="round"/>
<path d="M843.358 71.6514H844.336" stroke="#BC8619" stroke-width="2" stroke-linecap="round"/>
<path d="M819.549 83.3926H820.527" stroke="#BC8619" stroke-width="2" stroke-linecap="round"/>
<path d="M836.182 91.8726C836.29 91.8726 836.398 91.8726 837.099 91.8726C837.8 91.8726 839.092 91.8726 840.748 92.1987" stroke="#BC8619" stroke-width="2" stroke-linecap="round"/>
<path d="M832.269 83.0666L833.573 82.4143" stroke="#BC8619" stroke-width="2" stroke-linecap="round"/>
<path d="M815.635 94.1558H817.592" stroke="#BC8619" stroke-width="2" stroke-linecap="round"/>
<path d="M810.743 74.2605H813.678" stroke="#BC8619" stroke-width="2" stroke-linecap="round"/>
<path d="M835.856 59.5837H838.465" stroke="#BC8619" stroke-width="2" stroke-linecap="round"/>
<path d="M848.25 86.6543L851.838 86.9804" stroke="#BC8619" stroke-width="2" stroke-linecap="round"/>
<path d="M1172.69 158.15L1176.03 157.732" stroke="#BC8619" stroke-width="2" stroke-linecap="round"/>
<path d="M1159.74 169.008H1163.5" stroke="#BC8619" stroke-width="2" stroke-linecap="round"/>
<path d="M1176.03 169.008H1180.21" stroke="#BC8619" stroke-width="2" stroke-linecap="round"/>
<path d="M1166.01 162.743L1168.51 161.49" stroke="#BC8619" stroke-width="2" stroke-linecap="round"/>
<path d="M1157.24 156.061L1161.83 155.644" stroke="#BC8619" stroke-width="2" stroke-linecap="round"/>
<path d="M1146.79 164.414L1150.97 162.743" stroke="#BC8619" stroke-width="2" stroke-linecap="round"/>
<path d="M1167.26 149.797H1171.85" stroke="#BC8619" stroke-width="2" stroke-linecap="round"/>
<path d="M1169.4 175.063L1172.46 174.299" stroke="#BC8619" stroke-width="2" stroke-linecap="round"/>
<path d="M1467.6 128.592H1469.66" stroke="#BC8619" stroke-width="2" stroke-linecap="round"/>
<path d="M1462.62 133.182C1462.75 133.248 1462.88 133.313 1463.25 133.38C1463.61 133.447 1464.2 133.512 1464.6 133.612C1465.01 133.711 1465.2 133.843 1465.41 133.978" stroke="#BC8619" stroke-width="2" stroke-linecap="round"/>
<path d="M1468.59 139.746H1469.98" stroke="#BC8619" stroke-width="2" stroke-linecap="round"/>
<path d="M1473.56 133.978H1474.16" stroke="#BC8619" stroke-width="2" stroke-linecap="round"/>
<path d="M1456.06 125.425L1457.65 125.226" stroke="#BC8619" stroke-width="2" stroke-linecap="round"/>
<path d="M1469.18 124.629H1470.78" stroke="#BC8619" stroke-width="2" stroke-linecap="round"/>
<path d="M1452.48 132.585L1453.67 131.79" stroke="#BC8619" stroke-width="2" stroke-linecap="round"/>
<path d="M1460.43 140.144H1462.22" stroke="#BC8619" stroke-width="2" stroke-linecap="round"/>
<path d="M1461.43 121.247L1464.61 121.645" stroke="#BC8619" stroke-width="2" stroke-linecap="round"/>
<path d="M245.5 130C245.5 140.217 233.688 146.5 218.5 146.5C203.312 146.5 193 144.217 193 134C193 123.783 203.312 99 218.5 99C233.688 99 240 117 245.5 130Z" fill="#D9D9D9"/>
<path d="M196.6 131.158C196.531 135.453 197.211 136.959 197.657 137.709C198.44 138.733 199.804 139.962 201.204 140.681C201.514 140.785 201.717 140.785 202.131 140.99" stroke="#A3A19D" stroke-width="2" stroke-linecap="round"/>
<path d="M225.764 142.013C229.475 141.357 231.212 140.636 232.64 140.121C233.401 139.688 234.062 139.319 234.498 139.174C234.718 139.101 234.934 139.029 235.375 138.736" stroke="#A3A19D" stroke-width="2" stroke-linecap="round"/>
</svg>
